<svg width="311" height="340" viewBox="0 0 311 340" fill="none" xmlns="http://www.w3.org/2000/svg">
<circle opacity="0.25" cx="155.5" cy="207.5" r="132.5" fill="#FF6A6A"/>
<mask id="mask0" mask-type="alpha" maskUnits="userSpaceOnUse" x="0" y="0" width="311" height="340">
<path d="M311 186.961C311 270.932 242.928 339.005 158.956 339.005C74.9848 339.005 6.91256 270.932 6.91256 186.961C6.91256 102.99 -49.3151 -75.2427 158.956 34.9173C242.928 34.9173 311 102.99 311 186.961Z" fill="#C4C4C4"/>
</mask>
<g mask="url(#mask0)">
<path fill-rule="evenodd" clip-rule="evenodd" d="M71.8331 69.1607L44.4344 38.5096C41.1587 29.7961 37.4353 22.6113 33.2643 16.9552C31.8358 15.6618 29.0543 14.2003 30.0729 20.0368C31.0915 25.8733 31.9005 32.0583 29.973 33.0628C28.0456 34.0674 25.3043 30.7401 22.7562 32.6409C21.0575 33.908 26.0787 38.6378 37.8199 46.8302L54.511 78.1886L71.8331 69.1607Z" fill="#FFD5AE"/>
<path fill-rule="evenodd" clip-rule="evenodd" d="M159.009 147.62L160.94 138.713C111.582 122.396 80.6859 48.2725 62.1987 42.9985C55.4189 41.0644 51.7406 45.8441 49.7649 43.2061L40.7169 54.4986C42.9355 56.5745 38.5357 60.606 41.1008 69.5378C43.6658 78.4695 99.8352 145.039 159.009 147.62Z" fill="#EC5F5F"/>
<path d="M216.857 213.05C224.052 212.198 226.324 207.31 226.816 200.797C227.759 188.312 226.875 176.681 225.176 167.048C221.244 144.758 210.128 131.534 196.503 125.79C192.403 123.176 179.943 119.214 162.906 124.278C163.304 126.4 163.71 128.512 164.119 130.62C170.522 163.45 180.431 192.862 193.651 215.799C201.524 216.607 212.402 214.303 216.857 213.05Z" fill="#282A2E"/>
<path fill-rule="evenodd" clip-rule="evenodd" d="M161.385 285.817C130.758 319.267 94.7665 369.217 93.7554 372.145C92.7443 375.072 108.28 484.337 108.28 484.337L94.6873 485.234C94.6873 485.234 61.1168 372.561 63.0919 363.585C65.0669 354.608 103.627 291.127 124.345 251.078L161.385 285.817Z" fill="#FFD5AE"/>
<path fill-rule="evenodd" clip-rule="evenodd" d="M123.299 437.953L58.4793 445.503C58.4793 445.503 59.6599 346.98 66.7657 323.257C73.8716 299.534 134.429 222.081 134.429 222.081L181.652 266.37C181.652 266.37 126.232 332.498 124.712 336.569C123.192 340.639 123.299 437.953 123.299 437.953Z" fill="#69A1AC"/>
<path fill-rule="evenodd" clip-rule="evenodd" d="M179.578 256.582L177.381 395.323L183.86 509.476L171.224 514.238L136.151 272.95L179.578 256.582Z" fill="#FFD5AE"/>
<path fill-rule="evenodd" clip-rule="evenodd" d="M200.332 476.693L136.447 486.158L126.967 261.321L182.61 246.805L200.332 476.693Z" fill="#89C5CC"/>
<path fill-rule="evenodd" clip-rule="evenodd" d="M173.435 51.1769C184.568 55.308 190.243 67.6815 186.112 78.8138L177.941 100.832C174.003 111.445 162.572 117.099 151.868 114.023C151.857 114.049 151.846 114.075 151.834 114.101L123.59 103.62C120.788 97.6945 134.989 72.2211 143.014 60.8182C147.731 50.8408 159.382 45.962 169.922 49.8731L173.435 51.1769Z" fill="#C07F32"/>
<path fill-rule="evenodd" clip-rule="evenodd" d="M153.818 97.3547C146.101 98.8156 139.222 98.3528 136.592 96.5235C129.995 91.9366 139.227 65.0038 148.774 56.5786C158.322 48.1533 189.037 54.335 182.765 75.7204C180.588 83.1427 175.155 88.4713 168.712 92.0736L162.841 132.566L139.466 123.892L153.818 97.3547Z" fill="#FFD5AE"/>
<path fill-rule="evenodd" clip-rule="evenodd" d="M185.813 76.9899C185.383 76.0671 184.967 75.1743 184.532 74.3514L184.844 73.6056C184.844 73.6056 183.081 55.8644 171.803 51.6791C160.535 47.4976 155.027 51.4137 150.346 54.7425L150.333 54.7515C149.9 60.7761 153.859 64.7478 158.337 69.2396C160.264 71.1732 162.288 73.2031 164.098 75.5347C165.297 75.1281 166.638 75.1155 167.918 75.5902C170.876 76.6881 172.384 79.9763 171.286 82.9347C170.189 85.8931 166.9 87.4014 163.942 86.3036C163.86 86.2733 163.78 86.2413 163.7 86.2078C158.33 97.3766 153.859 110.748 155.905 115.075L184.149 125.556C190.188 111.77 188.035 106.399 185.835 100.911C183.765 95.7466 181.654 90.4787 186.285 77.9988C186.125 77.6599 185.968 77.323 185.813 76.99L185.813 76.9899Z" fill="#C07F32"/>
<rect width="36.3593" height="21.8156" rx="4" transform="matrix(-0.997239 0.0742535 0.0742535 0.997239 166.764 115.78)" fill="#FF6A6A"/>
<path fill-rule="evenodd" clip-rule="evenodd" d="M216.297 190.822C216.297 190.822 231.865 270.237 234.937 276.399C236.439 279.412 247.495 288.535 255.162 293.741C258.239 295.831 256.982 298.529 255.826 299.249C246.428 305.107 240.191 298.258 232.016 294.5C223.06 290.382 223.868 302.12 216.769 298.981C218.922 294.096 223.968 285 221.538 279.054C219.917 275.09 193.55 191.009 193.55 191.009L216.297 190.822Z" fill="#FFD5AE"/>
<path fill-rule="evenodd" clip-rule="evenodd" d="M189.598 266.766C178.032 288.323 110.525 265.043 103.384 243.137C94.4201 215.636 135.809 198.304 131.299 125.837L157.919 121.015C179.287 151.418 210.685 227.464 189.598 266.766Z" fill="#FF6A6A"/>
<path fill-rule="evenodd" clip-rule="evenodd" d="M160.369 121.004C160.369 121.004 223.623 158.711 237.809 249.947C239.798 262.74 232.607 265.563 233.67 271.289L218.408 275.576C218.389 271.358 206.783 269.669 203.741 258.734C193.327 221.284 153.648 127.033 153.648 127.033L160.369 121.004Z" fill="#FF8987"/>
<path d="M205.945 201.293C187.266 206.135 149.182 206.924 146.281 171.345C142.655 126.872 178.947 127.712 179.127 128.668L179.714 121.681L170.27 122.04C170.089 121.083 134.17 128.531 137.796 173.004C140.697 208.583 179.153 214.24 197.833 209.398L207.13 207.58L205.945 201.293Z" fill="#282A2E"/>
<path fill-rule="evenodd" clip-rule="evenodd" d="M189.231 176.151L187.36 181.148C206.409 195.502 210.796 241.704 218.03 246.593C220.683 248.386 222.81 245.964 223.338 247.694L228.515 242.008C227.817 240.581 230.162 238.665 230.126 233.212C230.089 227.759 214.072 183.471 189.231 176.151Z" fill="#FF8987"/>
<path fill-rule="evenodd" clip-rule="evenodd" d="M184.508 173.906L181.918 178.571C198.633 195.587 196.132 241.93 202.563 247.835C204.921 250.001 207.383 247.921 207.649 249.71L213.611 244.853C213.132 243.338 215.735 241.791 216.506 236.393C217.277 230.994 207.992 184.823 184.508 173.906Z" fill="#FF8987"/>
<path fill-rule="evenodd" clip-rule="evenodd" d="M176.179 170.149L173.505 176.064C186.526 195.87 184.634 211.544 191.129 216.041C195.045 220.954 202.533 243.977 202.8 245.766L205.281 241.096C204.802 239.581 207.405 238.034 208.176 232.636C208.947 227.237 199.662 181.066 176.179 170.149Z" fill="#FF8987"/>
</g>
</svg>
