<svg width="186" height="46" viewBox="0 0 186 46" fill="none" xmlns="http://www.w3.org/2000/svg">
<path d="M177.358 26.4974C177.358 22.3596 177.358 18.2218 177.358 14.0841C177.358 13.8159 177.368 13.5505 177.444 13.2904C177.715 12.3596 178.54 11.7003 179.506 11.6454C179.602 11.6401 179.697 11.6367 179.793 11.6367C181.059 11.6361 182.324 11.6387 183.59 11.6354C184.012 11.6341 184.419 11.7003 184.79 11.9082C185.557 12.3388 185.965 12.9968 185.998 13.8835C186 13.937 185.998 13.9905 185.998 14.044C185.998 21.8059 185.997 29.5679 186 37.3305C186 37.7003 185.956 38.0567 185.792 38.3891C185.37 39.2423 184.676 39.6809 183.734 39.7197C183.405 39.7338 183.075 39.7217 182.745 39.7217C181.149 39.7217 179.553 39.7217 177.958 39.7217C177.872 39.7217 177.787 39.7277 177.703 39.717C177.499 39.6916 177.378 39.5653 177.362 39.358C177.353 39.2516 177.358 39.144 177.358 39.0377C177.358 34.8585 177.358 30.6779 177.358 26.4974Z" fill="white"/>
<path d="M166.72 30.0624C166.72 27.0514 166.721 24.0404 166.719 21.0288C166.718 20.5572 166.828 20.117 167.087 19.7216C167.557 19.0056 168.228 18.6269 169.094 18.6209C170.446 18.6122 171.799 18.6196 173.151 18.6182C174.423 18.6169 175.373 19.5954 175.494 20.648C175.511 20.7963 175.525 20.9453 175.525 21.0942C175.526 27.0948 175.526 33.0961 175.526 39.0968C175.526 39.1823 175.532 39.2684 175.523 39.3526C175.498 39.573 175.367 39.7006 175.146 39.7226C175.071 39.73 174.994 39.7246 174.918 39.7246C172.387 39.7246 169.855 39.7246 167.324 39.7246C167.259 39.7246 167.194 39.728 167.129 39.7233C166.869 39.7046 166.735 39.5717 166.721 39.3179C166.716 39.233 166.72 39.1469 166.72 39.0614C166.72 36.0637 166.72 33.0634 166.72 30.0624Z" fill="white"/>
<path d="M168.154 0.000636699C173.404 0.000636699 178.653 0.000636699 183.904 0.000636699C184.106 0.000636699 184.304 0.00793842 184.503 0.0590505C185.437 0.296688 186.01 1.17688 186 1.97077C185.992 2.58611 185.998 3.20145 185.998 3.81678C185.998 3.85927 186 3.90175 185.998 3.94423C185.982 4.16461 185.861 4.29339 185.638 4.31596C185.544 4.32591 185.447 4.31994 185.352 4.31994C181.122 4.31994 176.893 4.31994 172.663 4.31994C166.563 4.31994 160.463 4.31927 154.363 4.32127C154.074 4.32127 153.789 4.30135 153.515 4.20776C152.517 3.86723 151.935 3.17888 151.788 2.13008C151.745 1.82341 151.765 1.51608 151.761 1.20874C151.758 0.975085 151.758 0.742094 151.761 0.508438C151.763 0.4248 151.771 0.338507 151.794 0.258188C151.839 0.0975505 151.948 0.0139126 152.118 0.00329187C152.213 -0.00268227 152.309 0.00130049 152.404 0.00130049C157.655 0.000636699 162.904 0.000636699 168.154 0.000636699Z" fill="white"/>
<path d="M156.083 33.0364C156.083 31.0484 156.083 29.0605 156.082 27.0725C156.082 26.8245 156.095 26.5799 156.173 26.3413C156.443 25.5093 157.194 24.9494 158.077 24.9367C158.588 24.9293 159.099 24.9353 159.609 24.9353C160.63 24.9353 161.651 24.9333 162.673 24.936C163.355 24.938 163.91 25.2082 164.323 25.7593C164.574 26.094 164.704 26.4757 164.721 26.8951C164.725 26.9811 164.723 27.0671 164.723 27.1531C164.723 31.1291 164.723 35.105 164.723 39.0809C164.723 39.167 164.727 39.253 164.721 39.339C164.707 39.5635 164.584 39.6959 164.366 39.7221C164.303 39.7295 164.238 39.7254 164.174 39.7254C161.664 39.7254 159.153 39.7254 156.643 39.7254C156.568 39.7254 156.493 39.7302 156.42 39.7201C156.216 39.6918 156.099 39.5648 156.084 39.3558C156.077 39.2705 156.082 39.1838 156.082 39.0977C156.083 37.0768 156.083 35.0566 156.083 33.0364Z" fill="white"/>
<path d="M154.417 36.3365C154.417 37.3019 154.417 38.2674 154.417 39.2328C154.417 39.2328 154.417 39.2792 154.415 39.3754C154.412 39.4909 154.411 39.5493 154.404 39.5818C154.378 39.6966 154.283 39.7669 154.235 39.8054C153.849 40.1146 153.47 40.4304 153.089 40.7442C151.398 42.135 149.707 43.5264 148.016 44.9171C147.908 45.006 147.802 45.0989 147.687 45.1758C147.256 45.4625 146.806 45.4406 146.393 45.134C146.153 44.9569 145.989 44.7213 145.869 44.4573C145.72 44.1335 145.647 43.7931 145.649 43.4381C145.651 42.547 145.659 41.6566 145.661 40.7655C145.663 39.7364 145.704 38.7053 145.651 37.6788C145.577 36.2363 145.626 34.7952 145.611 33.354C145.604 32.5923 145.973 32.039 146.684 31.7191C146.913 31.6163 147.159 31.5811 147.411 31.5818C147.779 31.5831 148.147 31.5818 148.515 31.5818C149.847 31.5818 151.178 31.5818 152.509 31.5818C152.672 31.5818 152.834 31.5811 152.994 31.6136C153.839 31.7848 154.41 32.461 154.415 33.3129C154.421 34.1403 154.417 34.9677 154.417 35.7951C154.417 35.9756 154.417 36.1561 154.417 36.3365Z" fill="white"/>
<path d="M150.095 6.81363C150.095 8.84599 150.095 10.8783 150.095 12.91C150.095 13.1031 150.09 13.2948 150.043 13.4859C149.85 14.2811 149.117 14.7836 148.402 14.7897C147.743 14.7957 147.083 14.7917 146.424 14.7917C146.281 14.7917 146.138 14.7971 145.996 14.7897C145.765 14.7775 145.633 14.6504 145.613 14.4277C145.606 14.3638 145.611 14.2986 145.611 14.234C145.61 10.1054 145.611 5.97674 145.609 1.84746C145.609 1.47274 145.677 1.11888 145.887 0.803361C146.229 0.290732 146.711 0.0075078 147.343 0.0027986C148.101 -0.00258333 148.86 0.00145312 149.617 0.00145312C149.661 0.00145312 149.705 -0.000565103 149.749 0.0027986C149.945 0.0182717 150.071 0.134656 150.09 0.329751C150.1 0.425953 150.095 0.522828 150.095 0.619703C150.095 2.68435 150.095 4.74899 150.095 6.81363Z" fill="white"/>
<path d="M1.59733 39.82C0.564592 39.82 0.0341568 39.2784 0.00602769 38.1952C0.00200923 38.0775 0 37.9126 0 37.7007C0 37.4888 0.00200923 37.3239 0.00602769 37.2062C0.0221015 36.6724 0.170784 36.2682 0.452076 35.9935C0.733367 35.7188 1.11512 35.5814 1.59733 35.5814C2.07955 35.5814 2.4613 35.7188 2.74259 35.9935C3.02388 36.2682 3.17257 36.6724 3.18864 37.2062C3.19668 37.4417 3.2007 37.6065 3.2007 37.7007C3.2007 37.7949 3.19668 37.9597 3.18864 38.1952C3.16051 39.2784 2.63008 39.82 1.59733 39.82ZM1.59733 39.4668C1.95899 39.4668 2.24631 39.3608 2.45929 39.1489C2.67629 38.933 2.79282 38.6053 2.8089 38.1658C2.81693 37.9303 2.82095 37.7753 2.82095 37.7007C2.82095 37.6261 2.81693 37.4711 2.8089 37.2356C2.79282 36.7961 2.67629 36.4703 2.45929 36.2584C2.2423 36.0425 1.95498 35.9346 1.59733 35.9346C1.23969 35.9346 0.952373 36.0425 0.735376 36.2584C0.51838 36.4703 0.401845 36.7961 0.385771 37.2356C0.381753 37.3534 0.379744 37.5084 0.379744 37.7007C0.379744 37.893 0.381753 38.048 0.385771 38.1658C0.401845 38.6053 0.516371 38.933 0.729349 39.1489C0.946345 39.3608 1.23567 39.4668 1.59733 39.4668Z" fill="white"/>
<path d="M4.22003 40.8797C4.17985 40.8797 4.1477 40.8679 4.12359 40.8443C4.09948 40.8208 4.08742 40.7894 4.08742 40.7501V36.8294C4.08742 36.7902 4.09948 36.7588 4.12359 36.7352C4.1477 36.7117 4.17985 36.6999 4.22003 36.6999H4.3225C4.36269 36.6999 4.39483 36.7117 4.41895 36.7352C4.44306 36.7588 4.45511 36.7902 4.45511 36.8294V37.1061C4.68818 36.7961 5.02573 36.641 5.46776 36.641C5.90175 36.641 6.22122 36.7764 6.42616 37.0472C6.63512 37.3141 6.74563 37.6438 6.75768 38.0363C6.7617 38.0755 6.76371 38.1403 6.76371 38.2305C6.76371 38.3208 6.7617 38.3855 6.75768 38.4248C6.74563 38.8173 6.63512 39.1489 6.42616 39.4197C6.22122 39.6866 5.90175 39.82 5.46776 39.82C5.02975 39.82 4.6922 39.665 4.45511 39.3549V40.7501C4.45511 40.7894 4.44306 40.8208 4.41895 40.8443C4.39483 40.8679 4.36269 40.8797 4.3225 40.8797H4.22003ZM5.43159 39.4786C5.75709 39.4786 5.99418 39.3785 6.14286 39.1783C6.29556 38.9742 6.37794 38.7133 6.39 38.3954C6.39401 38.3561 6.39602 38.3012 6.39602 38.2305C6.39602 37.8655 6.32369 37.5673 6.17903 37.3357C6.03436 37.1002 5.78522 36.9825 5.43159 36.9825C5.11414 36.9825 4.87504 37.0865 4.7143 37.2945C4.55356 37.4986 4.46717 37.7399 4.45511 38.0186L4.44908 38.2482L4.45511 38.4778C4.45913 38.6465 4.49731 38.8074 4.56964 38.9605C4.64197 39.1096 4.75047 39.2333 4.89513 39.3314C5.0398 39.4295 5.21862 39.4786 5.43159 39.4786Z" fill="white"/>
<path d="M8.59744 39.7611C8.30008 39.7611 8.08911 39.6748 7.96454 39.5021C7.83997 39.3255 7.77768 39.0841 7.77768 38.778V37.0414H7.30752C7.26734 37.0414 7.23519 37.0296 7.21108 37.006C7.18697 36.9825 7.17491 36.9511 7.17491 36.9118V36.8294C7.17491 36.7902 7.18697 36.7588 7.21108 36.7352C7.23519 36.7117 7.26734 36.6999 7.30752 36.6999H7.77768V35.7109C7.77768 35.6717 7.78973 35.6403 7.81384 35.6167C7.83796 35.5932 7.8701 35.5814 7.91029 35.5814H8.01276C8.05294 35.5814 8.08509 35.5932 8.1092 35.6167C8.13331 35.6403 8.14537 35.6717 8.14537 35.7109V36.6999H8.8928C8.93298 36.6999 8.96513 36.7117 8.98924 36.7352C9.01335 36.7588 9.02541 36.7902 9.02541 36.8294V36.9118C9.02541 36.9511 9.01335 36.9825 8.98924 37.006C8.96513 37.0296 8.93298 37.0414 8.8928 37.0414H8.14537V38.7545C8.14537 38.9742 8.18153 39.141 8.25387 39.2549C8.33022 39.3647 8.45479 39.4197 8.62758 39.4197H8.95308C8.99326 39.4197 9.02541 39.4315 9.04952 39.455C9.07363 39.4786 9.08568 39.51 9.08568 39.5492V39.6316C9.08568 39.6709 9.07363 39.7023 9.04952 39.7258C9.02541 39.7494 8.99326 39.7611 8.95308 39.7611H8.59744Z" fill="white"/>
<path d="M9.7751 36.07C9.73492 36.07 9.70277 36.0582 9.67866 36.0347C9.65455 36.0111 9.64249 35.9797 9.64249 35.9405V35.7168C9.64249 35.6775 9.65455 35.6462 9.67866 35.6226C9.70277 35.5951 9.73492 35.5814 9.7751 35.5814H10.0042C10.0443 35.5814 10.0765 35.5951 10.1006 35.6226C10.1287 35.6462 10.1428 35.6775 10.1428 35.7168V35.9405C10.1428 35.9797 10.1287 36.0111 10.1006 36.0347C10.0765 36.0582 10.0443 36.07 10.0042 36.07H9.7751ZM9.8414 39.7611C9.80122 39.7611 9.76907 39.7494 9.74496 39.7258C9.72085 39.7023 9.7088 39.6709 9.7088 39.6316V36.8294C9.7088 36.7902 9.72085 36.7588 9.74496 36.7352C9.76907 36.7117 9.80122 36.6999 9.8414 36.6999H9.94388C9.98406 36.6999 10.0162 36.7117 10.0403 36.7352C10.0644 36.7588 10.0765 36.7902 10.0765 36.8294V39.6316C10.0765 39.6709 10.0644 39.7023 10.0403 39.7258C10.0162 39.7494 9.98406 39.7611 9.94388 39.7611H9.8414Z" fill="white"/>
<path d="M11.1835 39.7611C11.1433 39.7611 11.1112 39.7494 11.0871 39.7258C11.063 39.7023 11.0509 39.6709 11.0509 39.6316V36.8294C11.0509 36.7902 11.063 36.7588 11.0871 36.7352C11.1112 36.7117 11.1433 36.6999 11.1835 36.6999H11.286C11.3262 36.6999 11.3583 36.7117 11.3824 36.7352C11.4065 36.7588 11.4186 36.7902 11.4186 36.8294V37.0355C11.5231 36.906 11.6436 36.8078 11.7802 36.7411C11.9209 36.6744 12.0877 36.641 12.2805 36.641C12.7306 36.641 13.0521 36.8255 13.245 37.1944C13.3414 37.0257 13.478 36.8922 13.6549 36.7941C13.8357 36.6921 14.0406 36.641 14.2697 36.641C14.6032 36.641 14.8745 36.7529 15.0834 36.9766C15.2924 37.1964 15.3968 37.5104 15.3968 37.9185V39.6316C15.3968 39.6709 15.3848 39.7023 15.3607 39.7258C15.3366 39.7494 15.3044 39.7611 15.2642 39.7611H15.1618C15.1216 39.7611 15.0894 39.7494 15.0653 39.7258C15.0412 39.7023 15.0292 39.6709 15.0292 39.6316V37.9774C15.0292 37.6202 14.9528 37.3651 14.8001 37.2121C14.6514 37.059 14.4545 36.9825 14.2094 36.9825C13.9924 36.9825 13.8035 37.061 13.6428 37.218C13.4861 37.371 13.4077 37.6242 13.4077 37.9774V39.6316C13.4077 39.6709 13.3957 39.7023 13.3716 39.7258C13.3474 39.7494 13.3153 39.7611 13.2751 39.7611H13.1726C13.1325 39.7611 13.1003 39.7494 13.0762 39.7258C13.0521 39.7023 13.04 39.6709 13.04 39.6316V37.9774C13.04 37.6242 12.9617 37.371 12.8049 37.218C12.6482 37.061 12.4533 36.9825 12.2203 36.9825C12.0033 36.9825 11.8144 37.061 11.6537 37.218C11.4969 37.371 11.4186 37.6222 11.4186 37.9715V39.6316C11.4186 39.6709 11.4065 39.7023 11.3824 39.7258C11.3583 39.7494 11.3262 39.7611 11.286 39.7611H11.1835Z" fill="white"/>
<path d="M16.4091 36.07C16.3689 36.07 16.3367 36.0582 16.3126 36.0347C16.2885 36.0111 16.2765 35.9797 16.2765 35.9405V35.7168C16.2765 35.6775 16.2885 35.6462 16.3126 35.6226C16.3367 35.5951 16.3689 35.5814 16.4091 35.5814H16.6381C16.6783 35.5814 16.7105 35.5951 16.7346 35.6226C16.7627 35.6462 16.7768 35.6775 16.7768 35.7168V35.9405C16.7768 35.9797 16.7627 36.0111 16.7346 36.0347C16.7105 36.0582 16.6783 36.07 16.6381 36.07H16.4091ZM16.4754 39.7611C16.4352 39.7611 16.403 39.7494 16.3789 39.7258C16.3548 39.7023 16.3428 39.6709 16.3428 39.6316V36.8294C16.3428 36.7902 16.3548 36.7588 16.3789 36.7352C16.403 36.7117 16.4352 36.6999 16.4754 36.6999H16.5778C16.618 36.6999 16.6502 36.7117 16.6743 36.7352C16.6984 36.7588 16.7105 36.7902 16.7105 36.8294V39.6316C16.7105 39.6709 16.6984 39.7023 16.6743 39.7258C16.6502 39.7494 16.618 39.7611 16.5778 39.7611H16.4754Z" fill="white"/>
<path d="M18.6794 39.82C18.4182 39.82 18.1972 39.7768 18.0164 39.6905C17.8396 39.6041 17.705 39.506 17.6125 39.3961C17.5241 39.2862 17.4799 39.1979 17.4799 39.1312C17.4799 39.0959 17.494 39.0684 17.5221 39.0488C17.5503 39.0253 17.5804 39.0135 17.6125 39.0135H17.703C17.7311 39.0135 17.7532 39.0194 17.7693 39.0311C17.7893 39.039 17.8115 39.0586 17.8356 39.09C17.924 39.2117 18.0305 39.3078 18.155 39.3785C18.2836 39.4452 18.4584 39.4786 18.6794 39.4786C18.9286 39.4786 19.1295 39.4334 19.2822 39.3432C19.4349 39.249 19.5113 39.1155 19.5113 38.9428C19.5113 38.8369 19.4791 38.7505 19.4148 38.6838C19.3545 38.6171 19.2541 38.5602 19.1134 38.5131C18.9768 38.4621 18.7719 38.4052 18.4986 38.3424C18.141 38.2639 17.8958 38.156 17.7632 38.0186C17.6346 37.8812 17.5703 37.7066 17.5703 37.4947C17.5703 37.3494 17.6105 37.2121 17.6909 37.0826C17.7753 36.9531 17.8978 36.8471 18.0586 36.7647C18.2233 36.6823 18.4202 36.641 18.6493 36.641C18.8904 36.641 19.0933 36.6823 19.2581 36.7647C19.4269 36.8432 19.5514 36.9354 19.6318 37.0414C19.7162 37.1473 19.7584 37.2337 19.7584 37.3004C19.7584 37.3357 19.7443 37.3651 19.7162 37.3887C19.6921 37.4083 19.6619 37.4181 19.6258 37.4181H19.5354C19.4791 37.4181 19.4349 37.3926 19.4028 37.3416C19.3224 37.2239 19.23 37.1355 19.1255 37.0767C19.025 37.0139 18.8663 36.9825 18.6493 36.9825C18.4162 36.9825 18.2394 37.0296 18.1189 37.1238C17.9983 37.218 17.938 37.3416 17.938 37.4947C17.938 37.5888 17.9621 37.6673 18.0104 37.7301C18.0586 37.7929 18.149 37.8518 18.2816 37.9067C18.4142 37.9578 18.6071 38.0107 18.8603 38.0657C19.234 38.1481 19.4972 38.258 19.6499 38.3954C19.8026 38.5327 19.8789 38.7152 19.8789 38.9428C19.8789 39.1038 19.8327 39.2509 19.7403 39.3844C19.6479 39.5178 19.5113 39.6238 19.3304 39.7023C19.1496 39.7808 18.9326 39.82 18.6794 39.82Z" fill="white"/>
<path d="M20.7179 36.07C20.6777 36.07 20.6456 36.0582 20.6215 36.0347C20.5974 36.0111 20.5853 35.9797 20.5853 35.9405V35.7168C20.5853 35.6775 20.5974 35.6462 20.6215 35.6226C20.6456 35.5951 20.6777 35.5814 20.7179 35.5814H20.947C20.9872 35.5814 21.0193 35.5951 21.0434 35.6226C21.0715 35.6462 21.0856 35.6775 21.0856 35.7168V35.9405C21.0856 35.9797 21.0715 36.0111 21.0434 36.0347C21.0193 36.0582 20.9872 36.07 20.947 36.07H20.7179ZM20.7842 39.7611C20.744 39.7611 20.7119 39.7494 20.6878 39.7258C20.6637 39.7023 20.6516 39.6709 20.6516 39.6316V36.8294C20.6516 36.7902 20.6637 36.7588 20.6878 36.7352C20.7119 36.7117 20.744 36.6999 20.7842 36.6999H20.8867C20.9269 36.6999 20.959 36.7117 20.9831 36.7352C21.0072 36.7588 21.0193 36.7902 21.0193 36.8294V39.6316C21.0193 39.6709 21.0072 39.7023 20.9831 39.7258C20.959 39.7494 20.9269 39.7611 20.8867 39.7611H20.7842Z" fill="white"/>
<path d="M22.1263 39.7611C22.0861 39.7611 22.054 39.7494 22.0299 39.7258C22.0058 39.7023 21.9937 39.6709 21.9937 39.6316V36.8294C21.9937 36.7902 22.0058 36.7588 22.0299 36.7352C22.054 36.7117 22.0861 36.6999 22.1263 36.6999H22.2288C22.269 36.6999 22.3011 36.7117 22.3252 36.7352C22.3493 36.7588 22.3614 36.7902 22.3614 36.8294V37.1061C22.482 36.9531 22.6186 36.8373 22.7713 36.7588C22.928 36.6803 23.1289 36.641 23.3741 36.641C23.7679 36.641 24.0713 36.7647 24.2842 37.0119C24.4972 37.2553 24.6037 37.5712 24.6037 37.9597V39.6316C24.6037 39.6709 24.5916 39.7023 24.5675 39.7258C24.5434 39.7494 24.5113 39.7611 24.4711 39.7611H24.3686C24.3284 39.7611 24.2963 39.7494 24.2722 39.7258C24.2481 39.7023 24.236 39.6709 24.236 39.6316V37.9892C24.236 37.6713 24.1556 37.424 23.9949 37.2474C23.8382 37.0708 23.6111 36.9825 23.3138 36.9825C23.0244 36.9825 22.7934 37.0728 22.6206 37.2533C22.4478 37.4299 22.3614 37.6752 22.3614 37.9892V39.6316C22.3614 39.6709 22.3493 39.7023 22.3252 39.7258C22.3011 39.7494 22.269 39.7611 22.2288 39.7611H22.1263Z" fill="white"/>
<path d="M26.7185 41.0563C26.405 41.0563 26.1539 41.0033 25.965 40.8973C25.7761 40.7913 25.6435 40.6697 25.5672 40.5323C25.4949 40.3989 25.4587 40.2811 25.4587 40.1791C25.4587 40.1438 25.4707 40.1143 25.4949 40.0908C25.523 40.0673 25.5551 40.0555 25.5913 40.0555H25.6757C25.7118 40.0555 25.74 40.0633 25.7601 40.079C25.7842 40.0986 25.8043 40.132 25.8203 40.1791C25.9449 40.5362 26.2342 40.7148 26.6883 40.7148C27.0339 40.7148 27.2891 40.6442 27.4538 40.5029C27.6186 40.3655 27.701 40.1183 27.701 39.7611V39.3549C27.4679 39.665 27.1304 39.82 26.6883 39.82C26.2543 39.82 25.9329 39.6826 25.7239 39.4079C25.519 39.1293 25.4105 38.7917 25.3984 38.3954L25.3924 38.2305L25.3984 38.0657C25.4105 37.6693 25.519 37.3337 25.7239 37.059C25.9329 36.7804 26.2543 36.641 26.6883 36.641C27.1263 36.641 27.4639 36.7961 27.701 37.1061V36.8353C27.701 36.7961 27.713 36.7647 27.7371 36.7411C27.7613 36.7137 27.7934 36.6999 27.8336 36.6999H27.93C27.9702 36.6999 28.0024 36.7137 28.0265 36.7411C28.0546 36.7647 28.0687 36.7961 28.0687 36.8353V39.7023C28.0687 40.1222 27.9682 40.4519 27.7673 40.6913C27.5664 40.9346 27.2168 41.0563 26.7185 41.0563ZM26.7245 39.4786C27.042 39.4786 27.2811 39.3765 27.4418 39.1724C27.6025 38.9644 27.6889 38.7211 27.701 38.4425C27.705 38.4032 27.707 38.3326 27.707 38.2305C27.707 38.1285 27.705 38.0578 27.701 38.0186C27.6889 37.7399 27.6025 37.4986 27.4418 37.2945C27.2811 37.0865 27.042 36.9825 26.7245 36.9825C26.399 36.9825 26.1599 37.0845 26.0072 37.2886C25.8585 37.4888 25.7782 37.7478 25.7661 38.0657L25.7601 38.2305L25.7661 38.3954C25.7782 38.7133 25.8585 38.9742 26.0072 39.1783C26.1599 39.3785 26.399 39.4786 26.7245 39.4786Z" fill="white"/>
<path d="M31.525 39.7611C31.2276 39.7611 31.0166 39.6748 30.8921 39.5021C30.7675 39.3255 30.7052 39.0841 30.7052 38.778V37.0414H30.2351C30.1949 37.0414 30.1627 37.0296 30.1386 37.006C30.1145 36.9825 30.1024 36.9511 30.1024 36.9118V36.8294C30.1024 36.7902 30.1145 36.7588 30.1386 36.7352C30.1627 36.7117 30.1949 36.6999 30.2351 36.6999H30.7052V35.7109C30.7052 35.6717 30.7173 35.6403 30.7414 35.6167C30.7655 35.5932 30.7976 35.5814 30.8378 35.5814H30.9403C30.9805 35.5814 31.0126 35.5932 31.0367 35.6167C31.0608 35.6403 31.0729 35.6717 31.0729 35.7109V36.6999H31.8203C31.8605 36.6999 31.8927 36.7117 31.9168 36.7352C31.9409 36.7588 31.9529 36.7902 31.9529 36.8294V36.9118C31.9529 36.9511 31.9409 36.9825 31.9168 37.006C31.8927 37.0296 31.8605 37.0414 31.8203 37.0414H31.0729V38.7545C31.0729 38.9742 31.1091 39.141 31.1814 39.2549C31.2578 39.3647 31.3823 39.4197 31.5551 39.4197H31.8806C31.9208 39.4197 31.9529 39.4315 31.9771 39.455C32.0012 39.4786 32.0132 39.51 32.0132 39.5492V39.6316C32.0132 39.6709 32.0012 39.7023 31.9771 39.7258C31.9529 39.7494 31.9208 39.7611 31.8806 39.7611H31.525Z" fill="white"/>
<path d="M32.775 39.7611C32.7348 39.7611 32.7026 39.7494 32.6785 39.7258C32.6544 39.7023 32.6424 39.6709 32.6424 39.6316V35.7109C32.6424 35.6717 32.6544 35.6403 32.6785 35.6167C32.7026 35.5932 32.7348 35.5814 32.775 35.5814H32.8774C32.9176 35.5814 32.9498 35.5932 32.9739 35.6167C32.998 35.6403 33.01 35.6717 33.01 35.7109V37.1061C33.1306 36.9531 33.2672 36.8373 33.4199 36.7588C33.5766 36.6803 33.7776 36.641 34.0227 36.641C34.4165 36.641 34.7199 36.7647 34.9329 37.0119C35.1459 37.2553 35.2523 37.5712 35.2523 37.9597V39.6316C35.2523 39.6709 35.2403 39.7023 35.2162 39.7258C35.1921 39.7494 35.1599 39.7611 35.1197 39.7611H35.0173C34.9771 39.7611 34.9449 39.7494 34.9208 39.7258C34.8967 39.7023 34.8847 39.6709 34.8847 39.6316V37.9892C34.8847 37.6713 34.8043 37.424 34.6435 37.2474C34.4868 37.0708 34.2598 36.9825 33.9624 36.9825C33.6731 36.9825 33.442 37.0728 33.2692 37.2533C33.0964 37.4299 33.01 37.6752 33.01 37.9892V39.6316C33.01 39.6709 32.998 39.7023 32.9739 39.7258C32.9498 39.7494 32.9176 39.7611 32.8774 39.7611H32.775Z" fill="white"/>
<path d="M37.3609 39.82C36.9792 39.82 36.6718 39.6983 36.4387 39.455C36.2056 39.2078 36.073 38.8781 36.0409 38.466L36.0349 38.2305L36.0409 37.995C36.073 37.5869 36.2036 37.2592 36.4327 37.0119C36.6658 36.7647 36.9752 36.641 37.3609 36.641C37.7789 36.641 38.1044 36.7764 38.3374 37.0472C38.5745 37.318 38.6931 37.6889 38.6931 38.1599V38.2482C38.6931 38.2874 38.679 38.3188 38.6509 38.3424C38.6268 38.3659 38.5946 38.3777 38.5544 38.3777H36.4086V38.4366C36.4166 38.621 36.4588 38.7937 36.5352 38.9546C36.6155 39.1116 36.726 39.2392 36.8667 39.3373C37.0073 39.4315 37.1721 39.4786 37.3609 39.4786C37.582 39.4786 37.7608 39.4373 37.8974 39.3549C38.0381 39.2686 38.1385 39.1822 38.1988 39.0959C38.235 39.0488 38.2611 39.0194 38.2772 39.0076C38.2972 38.9958 38.3314 38.9899 38.3796 38.9899H38.4761C38.5122 38.9899 38.5424 38.9998 38.5665 39.0194C38.5906 39.039 38.6026 39.0645 38.6026 39.0959C38.6026 39.1783 38.5484 39.2784 38.4399 39.3961C38.3354 39.51 38.1887 39.61 37.9999 39.6964C37.811 39.7788 37.598 39.82 37.3609 39.82ZM38.3254 38.048V38.0245C38.3254 37.7223 38.237 37.4731 38.0602 37.2768C37.8874 37.0806 37.6543 36.9825 37.3609 36.9825C37.0676 36.9825 36.8345 37.0806 36.6617 37.2768C36.493 37.4731 36.4086 37.7223 36.4086 38.0245V38.048H38.3254Z" fill="white"/>
<path d="M42.2175 39.82C41.8237 39.82 41.5243 39.6983 41.3194 39.455C41.1144 39.2117 41.012 38.8938 41.012 38.5013V36.8294C41.012 36.7902 41.024 36.7588 41.0481 36.7352C41.0723 36.7117 41.1044 36.6999 41.1446 36.6999H41.2471C41.2872 36.6999 41.3194 36.7117 41.3435 36.7352C41.3676 36.7588 41.3797 36.7902 41.3797 36.8294V38.4719C41.3797 39.143 41.679 39.4786 42.2778 39.4786C42.5671 39.4786 42.7962 39.3903 42.9649 39.2136C43.1377 39.0331 43.2241 38.7859 43.2241 38.4719V36.8294C43.2241 36.7902 43.2362 36.7588 43.2603 36.7352C43.2844 36.7117 43.3166 36.6999 43.3567 36.6999H43.4592C43.4994 36.6999 43.5315 36.7117 43.5557 36.7352C43.5798 36.7588 43.5918 36.7902 43.5918 36.8294V39.6316C43.5918 39.6709 43.5798 39.7023 43.5557 39.7258C43.5315 39.7494 43.4994 39.7611 43.4592 39.7611H43.3567C43.3166 39.7611 43.2844 39.7494 43.2603 39.7258C43.2362 39.7023 43.2241 39.6709 43.2241 39.6316V39.3549C43.1036 39.508 42.9649 39.6238 42.8082 39.7023C42.6555 39.7808 42.4586 39.82 42.2175 39.82Z" fill="white"/>
<path d="M44.7007 39.7611C44.6605 39.7611 44.6283 39.7494 44.6042 39.7258C44.5801 39.7023 44.5681 39.6709 44.5681 39.6316V36.8294C44.5681 36.7902 44.5801 36.7588 44.6042 36.7352C44.6283 36.7117 44.6605 36.6999 44.7007 36.6999H44.8031C44.8433 36.6999 44.8755 36.7117 44.8996 36.7352C44.9237 36.7588 44.9358 36.7902 44.9358 36.8294V37.1061C45.0563 36.9531 45.1929 36.8373 45.3456 36.7588C45.5024 36.6803 45.7033 36.641 45.9484 36.641C46.3422 36.641 46.6456 36.7647 46.8586 37.0119C47.0716 37.2553 47.1781 37.5712 47.1781 37.9597V39.6316C47.1781 39.6709 47.166 39.7023 47.1419 39.7258C47.1178 39.7494 47.0856 39.7611 47.0454 39.7611H46.943C46.9028 39.7611 46.8706 39.7494 46.8465 39.7258C46.8224 39.7023 46.8104 39.6709 46.8104 39.6316V37.9892C46.8104 37.6713 46.73 37.424 46.5693 37.2474C46.4125 37.0708 46.1855 36.9825 45.8881 36.9825C45.5988 36.9825 45.3677 37.0728 45.1949 37.2533C45.0222 37.4299 44.9358 37.6752 44.9358 37.9892V39.6316C44.9358 39.6709 44.9237 39.7023 44.8996 39.7258C44.8755 39.7494 44.8433 39.7611 44.8031 39.7611H44.7007Z" fill="white"/>
<path d="M48.1898 36.07C48.1496 36.07 48.1174 36.0582 48.0933 36.0347C48.0692 36.0111 48.0571 35.9797 48.0571 35.9405V35.7168C48.0571 35.6775 48.0692 35.6462 48.0933 35.6226C48.1174 35.5951 48.1496 35.5814 48.1898 35.5814H48.4188C48.459 35.5814 48.4911 35.5951 48.5153 35.6226C48.5434 35.6462 48.5574 35.6775 48.5574 35.7168V35.9405C48.5574 35.9797 48.5434 36.0111 48.5153 36.0347C48.4911 36.0582 48.459 36.07 48.4188 36.07H48.1898ZM48.2561 39.7611C48.2159 39.7611 48.1837 39.7494 48.1596 39.7258C48.1355 39.7023 48.1235 39.6709 48.1235 39.6316V36.8294C48.1235 36.7902 48.1355 36.7588 48.1596 36.7352C48.1837 36.7117 48.2159 36.6999 48.2561 36.6999H48.3585C48.3987 36.6999 48.4309 36.7117 48.455 36.7352C48.4791 36.7588 48.4911 36.7902 48.4911 36.8294V39.6316C48.4911 39.6709 48.4791 39.7023 48.455 39.7258C48.4309 39.7494 48.3987 39.7611 48.3585 39.7611H48.2561Z" fill="white"/>
<path d="M50.5445 39.7611C50.432 39.7611 50.3556 39.7121 50.3155 39.614L49.2064 36.8824L49.1943 36.8177C49.1943 36.7863 49.2064 36.7588 49.2305 36.7352C49.2546 36.7117 49.2827 36.6999 49.3149 36.6999H49.4414C49.4776 36.6999 49.5057 36.7097 49.5258 36.7293C49.5499 36.749 49.566 36.7686 49.5741 36.7882L50.5927 39.3314L51.6114 36.7882C51.6194 36.7686 51.6335 36.749 51.6536 36.7293C51.6777 36.7097 51.7079 36.6999 51.744 36.6999H51.8706C51.9027 36.6999 51.9309 36.7117 51.955 36.7352C51.9791 36.7588 51.9911 36.7863 51.9911 36.8177L51.9791 36.8824L50.87 39.614C50.8298 39.7121 50.7535 39.7611 50.6409 39.7611H50.5445Z" fill="white"/>
<path d="M53.7546 39.82C53.3728 39.82 53.0654 39.6983 52.8323 39.455C52.5993 39.2078 52.4667 38.8781 52.4345 38.466L52.4285 38.2305L52.4345 37.995C52.4667 37.5869 52.5973 37.2592 52.8263 37.0119C53.0594 36.7647 53.3688 36.641 53.7546 36.641C54.1725 36.641 54.498 36.7764 54.7311 37.0472C54.9681 37.318 55.0867 37.6889 55.0867 38.1599V38.2482C55.0867 38.2874 55.0726 38.3188 55.0445 38.3424C55.0204 38.3659 54.9882 38.3777 54.9481 38.3777H52.8022V38.4366C52.8102 38.621 52.8524 38.7937 52.9288 38.9546C53.0092 39.1116 53.1197 39.2392 53.2603 39.3373C53.401 39.4315 53.5657 39.4786 53.7546 39.4786C53.9756 39.4786 54.1544 39.4373 54.291 39.3549C54.4317 39.2686 54.5321 39.1822 54.5924 39.0959C54.6286 39.0488 54.6547 39.0194 54.6708 39.0076C54.6909 38.9958 54.725 38.9899 54.7733 38.9899H54.8697C54.9059 38.9899 54.936 38.9998 54.9601 39.0194C54.9842 39.039 54.9963 39.0645 54.9963 39.0959C54.9963 39.1783 54.942 39.2784 54.8335 39.3961C54.729 39.51 54.5824 39.61 54.3935 39.6964C54.2046 39.7788 53.9917 39.82 53.7546 39.82ZM54.719 38.048V38.0245C54.719 37.7223 54.6306 37.4731 54.4538 37.2768C54.281 37.0806 54.0479 36.9825 53.7546 36.9825C53.4612 36.9825 53.2282 37.0806 53.0554 37.2768C52.8866 37.4731 52.8022 37.7223 52.8022 38.0245V38.048H54.719Z" fill="white"/>
<path d="M56.0143 39.7611C55.9742 39.7611 55.942 39.7494 55.9179 39.7258C55.8938 39.7023 55.8817 39.6709 55.8817 39.6316V36.8353C55.8817 36.7961 55.8938 36.7647 55.9179 36.7411C55.942 36.7137 55.9742 36.6999 56.0143 36.6999H56.1108C56.151 36.6999 56.1831 36.7137 56.2072 36.7411C56.2354 36.7647 56.2494 36.7961 56.2494 36.8353V37.1061C56.3941 36.8353 56.6673 36.6999 57.0692 36.6999H57.2922C57.3324 36.6999 57.3645 36.7117 57.3886 36.7352C57.4128 36.7588 57.4248 36.7902 57.4248 36.8294V36.9118C57.4248 36.9511 57.4128 36.9825 57.3886 37.006C57.3645 37.0296 57.3324 37.0414 57.2922 37.0414H57.033C56.7919 37.0414 56.601 37.11 56.4604 37.2474C56.3197 37.3848 56.2494 37.5712 56.2494 37.8067V39.6316C56.2494 39.6709 56.2354 39.7023 56.2072 39.7258C56.1831 39.7494 56.151 39.7611 56.1108 39.7611H56.0143Z" fill="white"/>
<path d="M58.9719 39.82C58.7107 39.82 58.4896 39.7768 58.3088 39.6905C58.132 39.6041 57.9974 39.506 57.905 39.3961C57.8166 39.2862 57.7724 39.1979 57.7724 39.1312C57.7724 39.0959 57.7864 39.0684 57.8145 39.0488C57.8427 39.0253 57.8728 39.0135 57.905 39.0135H57.9954C58.0235 39.0135 58.0456 39.0194 58.0617 39.0311C58.0818 39.039 58.1039 39.0586 58.128 39.09C58.2164 39.2117 58.3229 39.3078 58.4474 39.3785C58.576 39.4452 58.7508 39.4786 58.9719 39.4786C59.221 39.4786 59.4219 39.4334 59.5746 39.3432C59.7273 39.249 59.8037 39.1155 59.8037 38.9428C59.8037 38.8369 59.7715 38.7505 59.7072 38.6838C59.647 38.6171 59.5465 38.5602 59.4058 38.5131C59.2692 38.4621 59.0643 38.4052 58.791 38.3424C58.4334 38.2639 58.1883 38.156 58.0556 38.0186C57.9271 37.8812 57.8628 37.7066 57.8628 37.4947C57.8628 37.3494 57.903 37.2121 57.9833 37.0826C58.0677 36.9531 58.1903 36.8471 58.351 36.7647C58.5158 36.6823 58.7127 36.641 58.9417 36.641C59.1828 36.641 59.3858 36.6823 59.5505 36.7647C59.7193 36.8432 59.8439 36.9354 59.9242 37.0414C60.0086 37.1473 60.0508 37.2337 60.0508 37.3004C60.0508 37.3357 60.0367 37.3651 60.0086 37.3887C59.9845 37.4083 59.9544 37.4181 59.9182 37.4181H59.8278C59.7715 37.4181 59.7273 37.3926 59.6952 37.3416C59.6148 37.2239 59.5224 37.1355 59.4179 37.0767C59.3174 37.0139 59.1587 36.9825 58.9417 36.9825C58.7086 36.9825 58.5318 37.0296 58.4113 37.1238C58.2907 37.218 58.2304 37.3416 58.2304 37.4947C58.2304 37.5888 58.2546 37.6673 58.3028 37.7301C58.351 37.7929 58.4414 37.8518 58.574 37.9067C58.7066 37.9578 58.8995 38.0107 59.1527 38.0657C59.5264 38.1481 59.7896 38.258 59.9423 38.3954C60.095 38.5327 60.1714 38.7152 60.1714 38.9428C60.1714 39.1038 60.1252 39.2509 60.0327 39.3844C59.9403 39.5178 59.8037 39.6238 59.6228 39.7023C59.442 39.7808 59.225 39.82 58.9719 39.82Z" fill="white"/>
<path d="M61.0103 36.07C60.9702 36.07 60.938 36.0582 60.9139 36.0347C60.8898 36.0111 60.8777 35.9797 60.8777 35.9405V35.7168C60.8777 35.6775 60.8898 35.6462 60.9139 35.6226C60.938 35.5951 60.9702 35.5814 61.0103 35.5814H61.2394C61.2796 35.5814 61.3117 35.5951 61.3358 35.6226C61.364 35.6462 61.378 35.6775 61.378 35.7168V35.9405C61.378 35.9797 61.364 36.0111 61.3358 36.0347C61.3117 36.0582 61.2796 36.07 61.2394 36.07H61.0103ZM61.0766 39.7611C61.0365 39.7611 61.0043 39.7494 60.9802 39.7258C60.9561 39.7023 60.944 39.6709 60.944 39.6316V36.8294C60.944 36.7902 60.9561 36.7588 60.9802 36.7352C61.0043 36.7117 61.0365 36.6999 61.0766 36.6999H61.1791C61.2193 36.6999 61.2514 36.7117 61.2756 36.7352C61.2997 36.7588 61.3117 36.7902 61.3117 36.8294V39.6316C61.3117 39.6709 61.2997 39.7023 61.2756 39.7258C61.2514 39.7494 61.2193 39.7611 61.1791 39.7611H61.0766Z" fill="white"/>
<path d="M63.341 39.7611C63.0436 39.7611 62.8326 39.6748 62.7081 39.5021C62.5835 39.3255 62.5212 39.0841 62.5212 38.778V37.0414H62.0511C62.0109 37.0414 61.9787 37.0296 61.9546 37.006C61.9305 36.9825 61.9184 36.9511 61.9184 36.9118V36.8294C61.9184 36.7902 61.9305 36.7588 61.9546 36.7352C61.9787 36.7117 62.0109 36.6999 62.0511 36.6999H62.5212V35.7109C62.5212 35.6717 62.5333 35.6403 62.5574 35.6167C62.5815 35.5932 62.6136 35.5814 62.6538 35.5814H62.7563C62.7965 35.5814 62.8286 35.5932 62.8527 35.6167C62.8768 35.6403 62.8889 35.6717 62.8889 35.7109V36.6999H63.6363C63.6765 36.6999 63.7087 36.7117 63.7328 36.7352C63.7569 36.7588 63.7689 36.7902 63.7689 36.8294V36.9118C63.7689 36.9511 63.7569 36.9825 63.7328 37.006C63.7087 37.0296 63.6765 37.0414 63.6363 37.0414H62.8889V38.7545C62.8889 38.9742 62.9251 39.141 62.9974 39.2549C63.0738 39.3647 63.1983 39.4197 63.3711 39.4197H63.6966C63.7368 39.4197 63.7689 39.4315 63.7931 39.455C63.8172 39.4786 63.8292 39.51 63.8292 39.5492V39.6316C63.8292 39.6709 63.8172 39.7023 63.7931 39.7258C63.7689 39.7494 63.7368 39.7611 63.6966 39.7611H63.341Z" fill="white"/>
<path d="M64.9828 40.8797C64.9506 40.8797 64.9225 40.8679 64.8984 40.8443C64.8743 40.8208 64.8622 40.7933 64.8622 40.7619C64.8622 40.7423 64.8743 40.703 64.8984 40.6442L65.3625 39.5845L64.2112 36.9354C64.1871 36.8765 64.1751 36.8373 64.1751 36.8177C64.1751 36.7863 64.1871 36.7588 64.2112 36.7352C64.2353 36.7117 64.2635 36.6999 64.2956 36.6999H64.4222C64.4865 36.6999 64.5327 36.7293 64.5608 36.7882L65.5735 39.1195L66.6102 36.7882C66.6424 36.7293 66.6886 36.6999 66.7489 36.6999H66.8694C66.9016 36.6999 66.9297 36.7117 66.9538 36.7352C66.9779 36.7588 66.99 36.7863 66.99 36.8177C66.99 36.8373 66.9779 36.8765 66.9538 36.9354L65.242 40.7913C65.2138 40.8502 65.1676 40.8797 65.1033 40.8797H64.9828Z" fill="white"/>
<path d="M70.2129 39.82C69.8312 39.82 69.5238 39.6983 69.2907 39.455C69.0576 39.2078 68.925 38.8781 68.8929 38.466L68.8869 38.2305L68.8929 37.995C68.925 37.5869 69.0556 37.2592 69.2847 37.0119C69.5178 36.7647 69.8272 36.641 70.2129 36.641C70.6309 36.641 70.9564 36.7764 71.1894 37.0472C71.4265 37.318 71.5451 37.6889 71.5451 38.1599V38.2482C71.5451 38.2874 71.531 38.3188 71.5029 38.3424C71.4788 38.3659 71.4466 38.3777 71.4064 38.3777H69.2606V38.4366C69.2686 38.621 69.3108 38.7937 69.3872 38.9546C69.4675 39.1116 69.578 39.2392 69.7187 39.3373C69.8593 39.4315 70.0241 39.4786 70.2129 39.4786C70.434 39.4786 70.6128 39.4373 70.7494 39.3549C70.8901 39.2686 70.9905 39.1822 71.0508 39.0959C71.087 39.0488 71.1131 39.0194 71.1292 39.0076C71.1492 38.9958 71.1834 38.9899 71.2316 38.9899H71.3281C71.3642 38.9899 71.3944 38.9998 71.4185 39.0194C71.4426 39.039 71.4547 39.0645 71.4547 39.0959C71.4547 39.1783 71.4004 39.2784 71.2919 39.3961C71.1874 39.51 71.0407 39.61 70.8519 39.6964C70.663 39.7788 70.45 39.82 70.2129 39.82ZM71.1774 38.048V38.0245C71.1774 37.7223 71.089 37.4731 70.9122 37.2768C70.7394 37.0806 70.5063 36.9825 70.2129 36.9825C69.9196 36.9825 69.6865 37.0806 69.5137 37.2768C69.345 37.4731 69.2606 37.7223 69.2606 38.0245V38.048H71.1774Z" fill="white"/>
<path d="M72.1363 39.7611C72.1041 39.7611 72.076 39.7494 72.0519 39.7258C72.0278 39.7023 72.0157 39.6748 72.0157 39.6434C72.0157 39.6041 72.0318 39.5649 72.064 39.5257L73.1248 38.1952L72.1182 36.9354C72.0861 36.8961 72.07 36.8569 72.07 36.8177C72.07 36.7863 72.082 36.7588 72.1062 36.7352C72.1303 36.7117 72.1584 36.6999 72.1905 36.6999H72.3171C72.3533 36.6999 72.3794 36.7078 72.3955 36.7235C72.4156 36.7352 72.4397 36.7568 72.4678 36.7882L73.372 37.9244L74.2761 36.7941C74.2801 36.7902 74.2902 36.7784 74.3063 36.7588C74.3223 36.7392 74.3404 36.7254 74.3605 36.7176C74.3806 36.7058 74.4027 36.6999 74.4268 36.6999H74.5474C74.5795 36.6999 74.6076 36.7117 74.6318 36.7352C74.6559 36.7588 74.6679 36.7863 74.6679 36.8177C74.6679 36.8569 74.6518 36.8961 74.6197 36.9354L73.601 38.2129L74.6619 39.5257C74.694 39.5649 74.7101 39.6041 74.7101 39.6434C74.7101 39.6748 74.6981 39.7023 74.674 39.7258C74.6498 39.7494 74.6217 39.7611 74.5896 39.7611H74.463C74.4067 39.7611 74.3565 39.7317 74.3123 39.6728L73.3599 38.4837L72.4075 39.6728C72.3794 39.7042 72.3553 39.7278 72.3352 39.7435C72.3191 39.7552 72.293 39.7611 72.2568 39.7611H72.1363Z" fill="white"/>
<path d="M75.5514 40.8797C75.5113 40.8797 75.4791 40.8679 75.455 40.8443C75.4309 40.8208 75.4188 40.7894 75.4188 40.7501V36.8294C75.4188 36.7902 75.4309 36.7588 75.455 36.7352C75.4791 36.7117 75.5113 36.6999 75.5514 36.6999H75.6539C75.6941 36.6999 75.7262 36.7117 75.7504 36.7352C75.7745 36.7588 75.7865 36.7902 75.7865 36.8294V37.1061C76.0196 36.7961 76.3571 36.641 76.7992 36.641C77.2332 36.641 77.5526 36.7764 77.7576 37.0472C77.9665 37.3141 78.077 37.6438 78.0891 38.0363C78.0931 38.0755 78.0951 38.1403 78.0951 38.2305C78.0951 38.3208 78.0931 38.3855 78.0891 38.4248C78.077 38.8173 77.9665 39.1489 77.7576 39.4197C77.5526 39.6866 77.2332 39.82 76.7992 39.82C76.3612 39.82 76.0236 39.665 75.7865 39.3549V40.7501C75.7865 40.7894 75.7745 40.8208 75.7504 40.8443C75.7262 40.8679 75.6941 40.8797 75.6539 40.8797H75.5514ZM76.763 39.4786C77.0885 39.4786 77.3256 39.3785 77.4743 39.1783C77.627 38.9742 77.7094 38.7133 77.7214 38.3954C77.7254 38.3561 77.7274 38.3012 77.7274 38.2305C77.7274 37.8655 77.6551 37.5673 77.5104 37.3357C77.3658 37.1002 77.1166 36.9825 76.763 36.9825C76.4455 36.9825 76.2065 37.0865 76.0457 37.2945C75.885 37.4986 75.7986 37.7399 75.7865 38.0186L75.7805 38.2482L75.7865 38.4778C75.7905 38.6465 75.8287 38.8074 75.901 38.9605C75.9734 39.1096 76.0819 39.2333 76.2265 39.3314C76.3712 39.4295 76.55 39.4786 76.763 39.4786Z" fill="white"/>
<path d="M80.0786 39.82C79.6968 39.82 79.3894 39.6983 79.1563 39.455C78.9232 39.2078 78.7906 38.8781 78.7585 38.466L78.7525 38.2305L78.7585 37.995C78.7906 37.5869 78.9212 37.2592 79.1503 37.0119C79.3834 36.7647 79.6928 36.641 80.0786 36.641C80.4965 36.641 80.822 36.7764 81.055 37.0472C81.2921 37.318 81.4107 37.6889 81.4107 38.1599V38.2482C81.4107 38.2874 81.3966 38.3188 81.3685 38.3424C81.3444 38.3659 81.3122 38.3777 81.272 38.3777H79.1262V38.4366C79.1342 38.621 79.1764 38.7937 79.2528 38.9546C79.3331 39.1116 79.4436 39.2392 79.5843 39.3373C79.7249 39.4315 79.8897 39.4786 80.0786 39.4786C80.2996 39.4786 80.4784 39.4373 80.615 39.3549C80.7557 39.2686 80.8561 39.1822 80.9164 39.0959C80.9526 39.0488 80.9787 39.0194 80.9948 39.0076C81.0149 38.9958 81.049 38.9899 81.0972 38.9899H81.1937C81.2298 38.9899 81.26 38.9998 81.2841 39.0194C81.3082 39.039 81.3203 39.0645 81.3203 39.0959C81.3203 39.1783 81.266 39.2784 81.1575 39.3961C81.053 39.51 80.9064 39.61 80.7175 39.6964C80.5286 39.7788 80.3156 39.82 80.0786 39.82ZM81.043 38.048V38.0245C81.043 37.7223 80.9546 37.4731 80.7778 37.2768C80.605 37.0806 80.3719 36.9825 80.0786 36.9825C79.7852 36.9825 79.5521 37.0806 79.3793 37.2768C79.2106 37.4731 79.1262 37.7223 79.1262 38.0245V38.048H81.043Z" fill="white"/>
<path d="M82.3383 39.7611C82.2981 39.7611 82.266 39.7494 82.2419 39.7258C82.2178 39.7023 82.2057 39.6709 82.2057 39.6316V36.8353C82.2057 36.7961 82.2178 36.7647 82.2419 36.7411C82.266 36.7137 82.2981 36.6999 82.3383 36.6999H82.4348C82.4749 36.6999 82.5071 36.7137 82.5312 36.7411C82.5593 36.7647 82.5734 36.7961 82.5734 36.8353V37.1061C82.7181 36.8353 82.9913 36.6999 83.3932 36.6999H83.6162C83.6564 36.6999 83.6885 36.7117 83.7126 36.7352C83.7367 36.7588 83.7488 36.7902 83.7488 36.8294V36.9118C83.7488 36.9511 83.7367 36.9825 83.7126 37.006C83.6885 37.0296 83.6564 37.0414 83.6162 37.0414H83.357C83.1159 37.0414 82.925 37.11 82.7844 37.2474C82.6437 37.3848 82.5734 37.5712 82.5734 37.8067V39.6316C82.5734 39.6709 82.5593 39.7023 82.5312 39.7258C82.5071 39.7494 82.4749 39.7611 82.4348 39.7611H82.3383Z" fill="white"/>
<path d="M84.3676 36.07C84.3274 36.07 84.2952 36.0582 84.2711 36.0347C84.247 36.0111 84.235 35.9797 84.235 35.9405V35.7168C84.235 35.6775 84.247 35.6462 84.2711 35.6226C84.2952 35.5951 84.3274 35.5814 84.3676 35.5814H84.5966C84.6368 35.5814 84.669 35.5951 84.6931 35.6226C84.7212 35.6462 84.7353 35.6775 84.7353 35.7168V35.9405C84.7353 35.9797 84.7212 36.0111 84.6931 36.0347C84.669 36.0582 84.6368 36.07 84.5966 36.07H84.3676ZM84.4339 39.7611C84.3937 39.7611 84.3616 39.7494 84.3374 39.7258C84.3133 39.7023 84.3013 39.6709 84.3013 39.6316V36.8294C84.3013 36.7902 84.3133 36.7588 84.3374 36.7352C84.3616 36.7117 84.3937 36.6999 84.4339 36.6999H84.5364C84.5765 36.6999 84.6087 36.7117 84.6328 36.7352C84.6569 36.7588 84.669 36.7902 84.669 36.8294V39.6316C84.669 39.6709 84.6569 39.7023 84.6328 39.7258C84.6087 39.7494 84.5765 39.7611 84.5364 39.7611H84.4339Z" fill="white"/>
<path d="M86.8067 39.82C86.425 39.82 86.1175 39.6983 85.8845 39.455C85.6514 39.2078 85.5188 38.8781 85.4867 38.466L85.4806 38.2305L85.4867 37.995C85.5188 37.5869 85.6494 37.2592 85.8785 37.0119C86.1115 36.7647 86.4209 36.641 86.8067 36.641C87.2246 36.641 87.5501 36.7764 87.7832 37.0472C88.0203 37.318 88.1388 37.6889 88.1388 38.1599V38.2482C88.1388 38.2874 88.1248 38.3188 88.0966 38.3424C88.0725 38.3659 88.0404 38.3777 88.0002 38.3777H85.8543V38.4366C85.8624 38.621 85.9046 38.7937 85.9809 38.9546C86.0613 39.1116 86.1718 39.2392 86.3124 39.3373C86.4531 39.4315 86.6178 39.4786 86.8067 39.4786C87.0277 39.4786 87.2066 39.4373 87.3432 39.3549C87.4838 39.2686 87.5843 39.1822 87.6446 39.0959C87.6807 39.0488 87.7068 39.0194 87.7229 39.0076C87.743 38.9958 87.7772 38.9899 87.8254 38.9899H87.9218C87.958 38.9899 87.9881 38.9998 88.0123 39.0194C88.0364 39.039 88.0484 39.0645 88.0484 39.0959C88.0484 39.1783 87.9942 39.2784 87.8857 39.3961C87.7812 39.51 87.6345 39.61 87.4456 39.6964C87.2568 39.7788 87.0438 39.82 86.8067 39.82ZM87.7711 38.048V38.0245C87.7711 37.7223 87.6827 37.4731 87.5059 37.2768C87.3331 37.0806 87.1001 36.9825 86.8067 36.9825C86.5134 36.9825 86.2803 37.0806 86.1075 37.2768C85.9387 37.4731 85.8543 37.7223 85.8543 38.0245V38.048H87.7711Z" fill="white"/>
<path d="M89.0665 39.7611C89.0263 39.7611 88.9942 39.7494 88.97 39.7258C88.9459 39.7023 88.9339 39.6709 88.9339 39.6316V36.8294C88.9339 36.7902 88.9459 36.7588 88.97 36.7352C88.9942 36.7117 89.0263 36.6999 89.0665 36.6999H89.169C89.2091 36.6999 89.2413 36.7117 89.2654 36.7352C89.2895 36.7588 89.3016 36.7902 89.3016 36.8294V37.1061C89.4221 36.9531 89.5587 36.8373 89.7114 36.7588C89.8682 36.6803 90.0691 36.641 90.3142 36.641C90.708 36.641 91.0114 36.7647 91.2244 37.0119C91.4374 37.2553 91.5439 37.5712 91.5439 37.9597V39.6316C91.5439 39.6709 91.5318 39.7023 91.5077 39.7258C91.4836 39.7494 91.4514 39.7611 91.4112 39.7611H91.3088C91.2686 39.7611 91.2364 39.7494 91.2123 39.7258C91.1882 39.7023 91.1762 39.6709 91.1762 39.6316V37.9892C91.1762 37.6713 91.0958 37.424 90.9351 37.2474C90.7783 37.0708 90.5513 36.9825 90.2539 36.9825C89.9646 36.9825 89.7335 37.0728 89.5608 37.2533C89.388 37.4299 89.3016 37.6752 89.3016 37.9892V39.6316C89.3016 39.6709 89.2895 39.7023 89.2654 39.7258C89.2413 39.7494 89.2091 39.7611 89.169 39.7611H89.0665Z" fill="white"/>
<path d="M93.6767 39.82C93.2588 39.82 92.9353 39.7023 92.7063 39.4668C92.4772 39.2274 92.3567 38.8938 92.3446 38.466L92.3386 38.2305L92.3446 37.995C92.3567 37.5673 92.4772 37.2356 92.7063 37.0001C92.9353 36.7607 93.2588 36.641 93.6767 36.641C93.9419 36.641 94.167 36.6881 94.3518 36.7823C94.5407 36.8726 94.6813 36.9903 94.7738 37.1355C94.8662 37.2768 94.9164 37.424 94.9244 37.5771C94.9285 37.6124 94.9164 37.6438 94.8883 37.6713C94.8601 37.6948 94.828 37.7066 94.7918 37.7066H94.7074C94.6673 37.7066 94.6371 37.6987 94.617 37.683C94.601 37.6634 94.5829 37.6301 94.5628 37.583C94.4824 37.3671 94.3699 37.214 94.2252 37.1238C94.0806 37.0296 93.8977 36.9825 93.6767 36.9825C93.3874 36.9825 93.1563 37.0688 92.9835 37.2415C92.8148 37.4103 92.7243 37.6713 92.7123 38.0245L92.7063 38.2305L92.7123 38.4366C92.7243 38.7898 92.8148 39.0527 92.9835 39.2254C93.1563 39.3942 93.3874 39.4786 93.6767 39.4786C93.8977 39.4786 94.0806 39.4334 94.2252 39.3432C94.3699 39.249 94.4824 39.0939 94.5628 38.8781C94.5829 38.831 94.601 38.7996 94.617 38.7839C94.6371 38.7643 94.6673 38.7545 94.7074 38.7545H94.7918C94.828 38.7545 94.8601 38.7682 94.8883 38.7957C94.9164 38.8192 94.9285 38.8487 94.9244 38.884C94.9164 39.037 94.8662 39.1862 94.7738 39.3314C94.6813 39.4727 94.5407 39.5904 94.3518 39.6846C94.167 39.7749 93.9419 39.82 93.6767 39.82Z" fill="white"/>
<path d="M96.8842 39.82C96.5025 39.82 96.1951 39.6983 95.962 39.455C95.7289 39.2078 95.5963 38.8781 95.5642 38.466L95.5581 38.2305L95.5642 37.995C95.5963 37.5869 95.7269 37.2592 95.956 37.0119C96.189 36.7647 96.4985 36.641 96.8842 36.641C97.3022 36.641 97.6276 36.7764 97.8607 37.0472C98.0978 37.318 98.2164 37.6889 98.2164 38.1599V38.2482C98.2164 38.2874 98.2023 38.3188 98.1742 38.3424C98.15 38.3659 98.1179 38.3777 98.0777 38.3777H95.9319V38.4366C95.9399 38.621 95.9821 38.7937 96.0584 38.9546C96.1388 39.1116 96.2493 39.2392 96.39 39.3373C96.5306 39.4315 96.6954 39.4786 96.8842 39.4786C97.1052 39.4786 97.2841 39.4373 97.4207 39.3549C97.5613 39.2686 97.6618 39.1822 97.7221 39.0959C97.7582 39.0488 97.7844 39.0194 97.8004 39.0076C97.8205 38.9958 97.8547 38.9899 97.9029 38.9899H97.9994C98.0355 38.9899 98.0657 38.9998 98.0898 39.0194C98.1139 39.039 98.1259 39.0645 98.1259 39.0959C98.1259 39.1783 98.0717 39.2784 97.9632 39.3961C97.8587 39.51 97.712 39.61 97.5232 39.6964C97.3343 39.7788 97.1213 39.82 96.8842 39.82ZM97.8487 38.048V38.0245C97.8487 37.7223 97.7603 37.4731 97.5834 37.2768C97.4107 37.0806 97.1776 36.9825 96.8842 36.9825C96.5909 36.9825 96.3578 37.0806 96.185 37.2768C96.0163 37.4731 95.9319 37.7223 95.9319 38.0245V38.048H97.8487Z" fill="white"/>
<path d="M100.876 39.7611C100.835 39.7611 100.803 39.7494 100.779 39.7258C100.755 39.7023 100.743 39.6709 100.743 39.6316V37.0414H100.207C100.166 37.0414 100.134 37.0296 100.11 37.006C100.086 36.9825 100.074 36.9511 100.074 36.9118V36.8294C100.074 36.7902 100.086 36.7588 100.11 36.7352C100.134 36.7117 100.166 36.6999 100.207 36.6999H100.743V36.3644C100.743 36.0661 100.809 35.8326 100.942 35.6638C101.075 35.4911 101.312 35.4048 101.653 35.4048H101.967C102.007 35.4048 102.039 35.4166 102.063 35.4401C102.087 35.4637 102.099 35.4951 102.099 35.5343V35.6167C102.099 35.656 102.087 35.6874 102.063 35.7109C102.039 35.7345 102.007 35.7462 101.967 35.7462H101.653C101.448 35.7462 101.306 35.7992 101.225 35.9052C101.149 36.0072 101.111 36.1701 101.111 36.3938V36.6999H101.906C101.947 36.6999 101.979 36.7117 102.003 36.7352C102.027 36.7588 102.039 36.7902 102.039 36.8294V36.9118C102.039 36.9511 102.027 36.9825 102.003 37.006C101.979 37.0296 101.947 37.0414 101.906 37.0414H101.111V39.6316C101.111 39.6709 101.099 39.7023 101.075 39.7258C101.05 39.7494 101.018 39.7611 100.978 39.7611H100.876Z" fill="white"/>
<path d="M103.748 39.82C103.331 39.82 103.005 39.6964 102.772 39.4491C102.543 39.1979 102.422 38.8742 102.41 38.4778L102.404 38.2305L102.41 37.9833C102.422 37.5869 102.543 37.2651 102.772 37.0178C103.005 36.7666 103.331 36.641 103.748 36.641C104.166 36.641 104.49 36.7666 104.719 37.0178C104.952 37.2651 105.075 37.5869 105.087 37.9833C105.091 38.0225 105.093 38.1049 105.093 38.2305C105.093 38.3561 105.091 38.4385 105.087 38.4778C105.075 38.8742 104.952 39.1979 104.719 39.4491C104.49 39.6964 104.166 39.82 103.748 39.82ZM103.748 39.4786C104.034 39.4786 104.263 39.3903 104.436 39.2136C104.612 39.0331 104.707 38.778 104.719 38.4483C104.723 38.4091 104.725 38.3365 104.725 38.2305C104.725 38.1246 104.723 38.052 104.719 38.0127C104.707 37.683 104.612 37.4299 104.436 37.2533C104.263 37.0728 104.034 36.9825 103.748 36.9825C103.463 36.9825 103.232 37.0728 103.055 37.2533C102.883 37.4299 102.79 37.683 102.778 38.0127L102.772 38.2305L102.778 38.4483C102.79 38.778 102.883 39.0331 103.055 39.2136C103.232 39.3903 103.463 39.4786 103.748 39.4786Z" fill="white"/>
<path d="M106.049 39.7611C106.009 39.7611 105.976 39.7494 105.952 39.7258C105.928 39.7023 105.916 39.6709 105.916 39.6316V36.8353C105.916 36.7961 105.928 36.7647 105.952 36.7411C105.976 36.7137 106.009 36.6999 106.049 36.6999H106.145C106.185 36.6999 106.218 36.7137 106.242 36.7411C106.27 36.7647 106.284 36.7961 106.284 36.8353V37.1061C106.428 36.8353 106.702 36.6999 107.104 36.6999H107.327C107.367 36.6999 107.399 36.7117 107.423 36.7352C107.447 36.7588 107.459 36.7902 107.459 36.8294V36.9118C107.459 36.9511 107.447 36.9825 107.423 37.006C107.399 37.0296 107.367 37.0414 107.327 37.0414H107.067C106.826 37.0414 106.635 37.11 106.495 37.2474C106.354 37.3848 106.284 37.5712 106.284 37.8067V39.6316C106.284 39.6709 106.27 39.7023 106.242 39.7258C106.218 39.7494 106.185 39.7611 106.145 39.7611H106.049Z" fill="white"/>
<path d="M110.582 39.82C110.2 39.82 109.893 39.6983 109.66 39.455C109.427 39.2078 109.294 38.8781 109.262 38.466L109.256 38.2305L109.262 37.995C109.294 37.5869 109.425 37.2592 109.654 37.0119C109.887 36.7647 110.196 36.641 110.582 36.641C111 36.641 111.325 36.7764 111.558 37.0472C111.795 37.318 111.914 37.6889 111.914 38.1599V38.2482C111.914 38.2874 111.9 38.3188 111.872 38.3424C111.848 38.3659 111.816 38.3777 111.775 38.3777H109.63V38.4366C109.638 38.621 109.68 38.7937 109.756 38.9546C109.836 39.1116 109.947 39.2392 110.088 39.3373C110.228 39.4315 110.393 39.4786 110.582 39.4786C110.803 39.4786 110.982 39.4373 111.118 39.3549C111.259 39.2686 111.359 39.1822 111.42 39.0959C111.456 39.0488 111.482 39.0194 111.498 39.0076C111.518 38.9958 111.552 38.9899 111.601 38.9899H111.697C111.733 38.9899 111.763 38.9998 111.787 39.0194C111.812 39.039 111.824 39.0645 111.824 39.0959C111.824 39.1783 111.769 39.2784 111.661 39.3961C111.556 39.51 111.41 39.61 111.221 39.6964C111.032 39.7788 110.819 39.82 110.582 39.82ZM111.546 38.048V38.0245C111.546 37.7223 111.458 37.4731 111.281 37.2768C111.108 37.0806 110.875 36.9825 110.582 36.9825C110.289 36.9825 110.055 37.0806 109.883 37.2768C109.714 37.4731 109.63 37.7223 109.63 38.0245V38.048H111.546Z" fill="white"/>
<path d="M113.688 39.7611C113.575 39.7611 113.499 39.7121 113.459 39.614L112.35 36.8824L112.338 36.8177C112.338 36.7863 112.35 36.7588 112.374 36.7352C112.398 36.7117 112.426 36.6999 112.458 36.6999H112.585C112.621 36.6999 112.649 36.7097 112.669 36.7293C112.693 36.749 112.709 36.7686 112.717 36.7882L113.736 39.3314L114.755 36.7882C114.763 36.7686 114.777 36.749 114.797 36.7293C114.821 36.7097 114.851 36.6999 114.887 36.6999H115.014C115.046 36.6999 115.074 36.7117 115.098 36.7352C115.123 36.7588 115.135 36.7863 115.135 36.8177L115.123 36.8824L114.013 39.614C113.973 39.7121 113.897 39.7611 113.784 39.7611H113.688Z" fill="white"/>
<path d="M116.898 39.82C116.516 39.82 116.209 39.6983 115.976 39.455C115.743 39.2078 115.61 38.8781 115.578 38.466L115.572 38.2305L115.578 37.995C115.61 37.5869 115.741 37.2592 115.97 37.0119C116.203 36.7647 116.512 36.641 116.898 36.641C117.316 36.641 117.641 36.7764 117.874 37.0472C118.112 37.318 118.23 37.6889 118.23 38.1599V38.2482C118.23 38.2874 118.216 38.3188 118.188 38.3424C118.164 38.3659 118.132 38.3777 118.091 38.3777H115.946V38.4366C115.954 38.621 115.996 38.7937 116.072 38.9546C116.153 39.1116 116.263 39.2392 116.404 39.3373C116.544 39.4315 116.709 39.4786 116.898 39.4786C117.119 39.4786 117.298 39.4373 117.434 39.3549C117.575 39.2686 117.676 39.1822 117.736 39.0959C117.772 39.0488 117.798 39.0194 117.814 39.0076C117.834 38.9958 117.868 38.9899 117.917 38.9899H118.013C118.049 38.9899 118.079 38.9998 118.104 39.0194C118.128 39.039 118.14 39.0645 118.14 39.0959C118.14 39.1783 118.085 39.2784 117.977 39.3961C117.872 39.51 117.726 39.61 117.537 39.6964C117.348 39.7788 117.135 39.82 116.898 39.82ZM117.862 38.048V38.0245C117.862 37.7223 117.774 37.4731 117.597 37.2768C117.424 37.0806 117.191 36.9825 116.898 36.9825C116.605 36.9825 116.372 37.0806 116.199 37.2768C116.03 37.4731 115.946 37.7223 115.946 38.0245V38.048H117.862Z" fill="white"/>
<path d="M119.158 39.7611C119.118 39.7611 119.085 39.7494 119.061 39.7258C119.037 39.7023 119.025 39.6709 119.025 39.6316V36.8353C119.025 36.7961 119.037 36.7647 119.061 36.7411C119.085 36.7137 119.118 36.6999 119.158 36.6999H119.254C119.294 36.6999 119.327 36.7137 119.351 36.7411C119.379 36.7647 119.393 36.7961 119.393 36.8353V37.1061C119.538 36.8353 119.811 36.6999 120.213 36.6999H120.436C120.476 36.6999 120.508 36.7117 120.532 36.7352C120.556 36.7588 120.568 36.7902 120.568 36.8294V36.9118C120.568 36.9511 120.556 36.9825 120.532 37.006C120.508 37.0296 120.476 37.0414 120.436 37.0414H120.176C119.935 37.0414 119.744 37.11 119.604 37.2474C119.463 37.3848 119.393 37.5712 119.393 37.8067V39.6316C119.393 39.6709 119.379 39.7023 119.351 39.7258C119.327 39.7494 119.294 39.7611 119.254 39.7611H119.158Z" fill="white"/>
<path d="M121.651 40.8797C121.619 40.8797 121.591 40.8679 121.567 40.8443C121.543 40.8208 121.531 40.7933 121.531 40.7619C121.531 40.7423 121.543 40.703 121.567 40.6442L122.031 39.5845L120.88 36.9354C120.855 36.8765 120.843 36.8373 120.843 36.8177C120.843 36.7863 120.855 36.7588 120.88 36.7352C120.904 36.7117 120.932 36.6999 120.964 36.6999H121.091C121.155 36.6999 121.201 36.7293 121.229 36.7882L122.242 39.1195L123.279 36.7882C123.311 36.7293 123.357 36.6999 123.417 36.6999H123.538C123.57 36.6999 123.598 36.7117 123.622 36.7352C123.646 36.7588 123.658 36.7863 123.658 36.8177C123.658 36.8373 123.646 36.8765 123.622 36.9354L121.91 40.7913C121.882 40.8502 121.836 40.8797 121.772 40.8797H121.651Z" fill="white"/>
<path d="M125.422 39.82C125.004 39.82 124.679 39.6964 124.446 39.4491C124.217 39.1979 124.096 38.8742 124.084 38.4778L124.078 38.2305L124.084 37.9833C124.096 37.5869 124.217 37.2651 124.446 37.0178C124.679 36.7666 125.004 36.641 125.422 36.641C125.84 36.641 126.164 36.7666 126.393 37.0178C126.626 37.2651 126.748 37.5869 126.76 37.9833C126.764 38.0225 126.766 38.1049 126.766 38.2305C126.766 38.3561 126.764 38.4385 126.76 38.4778C126.748 38.8742 126.626 39.1979 126.393 39.4491C126.164 39.6964 125.84 39.82 125.422 39.82ZM125.422 39.4786C125.708 39.4786 125.937 39.3903 126.109 39.2136C126.286 39.0331 126.381 38.778 126.393 38.4483C126.397 38.4091 126.399 38.3365 126.399 38.2305C126.399 38.1246 126.397 38.052 126.393 38.0127C126.381 37.683 126.286 37.4299 126.109 37.2533C125.937 37.0728 125.708 36.9825 125.422 36.9825C125.137 36.9825 124.906 37.0728 124.729 37.2533C124.556 37.4299 124.464 37.683 124.452 38.0127L124.446 38.2305L124.452 38.4483C124.464 38.778 124.556 39.0331 124.729 39.2136C124.906 39.3903 125.137 39.4786 125.422 39.4786Z" fill="white"/>
<path d="M127.722 39.7611C127.682 39.7611 127.65 39.7494 127.626 39.7258C127.602 39.7023 127.59 39.6709 127.59 39.6316V36.8294C127.59 36.7902 127.602 36.7588 127.626 36.7352C127.65 36.7117 127.682 36.6999 127.722 36.6999H127.825C127.865 36.6999 127.897 36.7117 127.921 36.7352C127.946 36.7588 127.958 36.7902 127.958 36.8294V37.1061C128.078 36.9531 128.215 36.8373 128.367 36.7588C128.524 36.6803 128.725 36.641 128.97 36.641C129.364 36.641 129.667 36.7647 129.88 37.0119C130.093 37.2553 130.2 37.5712 130.2 37.9597V39.6316C130.2 39.6709 130.188 39.7023 130.164 39.7258C130.14 39.7494 130.107 39.7611 130.067 39.7611H129.965C129.925 39.7611 129.892 39.7494 129.868 39.7258C129.844 39.7023 129.832 39.6709 129.832 39.6316V37.9892C129.832 37.6713 129.752 37.424 129.591 37.2474C129.434 37.0708 129.207 36.9825 128.91 36.9825C128.621 36.9825 128.39 37.0728 128.217 37.2533C128.044 37.4299 127.958 37.6752 127.958 37.9892V39.6316C127.958 39.6709 127.946 39.7023 127.921 39.7258C127.897 39.7494 127.865 39.7611 127.825 39.7611H127.722Z" fill="white"/>
<path d="M132.309 39.82C131.927 39.82 131.619 39.6983 131.386 39.455C131.153 39.2078 131.021 38.8781 130.989 38.466L130.983 38.2305L130.989 37.995C131.021 37.5869 131.151 37.2592 131.38 37.0119C131.613 36.7647 131.923 36.641 132.309 36.641C132.727 36.641 133.052 36.7764 133.285 37.0472C133.522 37.318 133.641 37.6889 133.641 38.1599V38.2482C133.641 38.2874 133.627 38.3188 133.599 38.3424C133.574 38.3659 133.542 38.3777 133.502 38.3777H131.356V38.4366C131.364 38.621 131.406 38.7937 131.483 38.9546C131.563 39.1116 131.674 39.2392 131.814 39.3373C131.955 39.4315 132.12 39.4786 132.309 39.4786C132.53 39.4786 132.708 39.4373 132.845 39.3549C132.986 39.2686 133.086 39.1822 133.146 39.0959C133.183 39.0488 133.209 39.0194 133.225 39.0076C133.245 38.9958 133.279 38.9899 133.327 38.9899H133.424C133.46 38.9899 133.49 38.9998 133.514 39.0194C133.538 39.039 133.55 39.0645 133.55 39.0959C133.55 39.1783 133.496 39.2784 133.388 39.3961C133.283 39.51 133.136 39.61 132.948 39.6964C132.759 39.7788 132.546 39.82 132.309 39.82ZM133.273 38.048V38.0245C133.273 37.7223 133.185 37.4731 133.008 37.2768C132.835 37.0806 132.602 36.9825 132.309 36.9825C132.015 36.9825 131.782 37.0806 131.609 37.2768C131.441 37.4731 131.356 37.7223 131.356 38.0245V38.048H133.273Z" fill="white"/>
<path d="M0.97554 29.0976C0.738151 29.0976 0.543924 29.033 0.392858 28.9037C0.241793 28.7528 0.16626 28.5589 0.16626 28.3219V7.28124C0.16626 7.04423 0.241793 6.8503 0.392858 6.69947C0.543924 6.54864 0.738151 6.47323 0.97554 6.47323H3.53287C3.98606 6.47323 4.30978 6.67793 4.504 7.08732L10.7517 18.7227L17.064 7.08732C17.2798 6.67793 17.6036 6.47323 18.0352 6.47323H20.5601C20.7975 6.47323 20.9917 6.54864 21.1428 6.69947C21.2939 6.8503 21.3694 7.04423 21.3694 7.28124V28.3219C21.3694 28.5589 21.2939 28.7528 21.1428 28.9037C20.9917 29.033 20.7975 29.0976 20.5601 29.0976H17.841C17.6251 29.0976 17.4417 29.0222 17.2906 28.8714C17.1396 28.7205 17.064 28.5374 17.064 28.3219V14.3271L12.5321 22.9567C12.2515 23.4307 11.8846 23.6677 11.4314 23.6677H10.1042C9.65103 23.6677 9.28416 23.4307 9.0036 22.9567L4.47163 14.3271V28.3219C4.47163 28.5374 4.3961 28.7205 4.24503 28.8714C4.11555 29.0222 3.93211 29.0976 3.69472 29.0976H0.97554Z" fill="white"/>
<path d="M33.4616 29.4208C30.9366 29.4208 28.9836 28.7744 27.6024 27.4816C26.2212 26.1672 25.4767 24.3788 25.3688 22.1164L25.3364 20.6943L25.3688 19.2722C25.4767 17.0313 26.232 15.2536 27.6348 13.9393C29.0375 12.6249 30.9798 11.9677 33.4616 11.9677C35.9434 11.9677 37.8857 12.6249 39.2884 13.9393C40.6912 15.2536 41.4465 17.0313 41.5544 19.2722C41.576 19.5307 41.5868 20.0048 41.5868 20.6943C41.5868 21.3838 41.576 21.8578 41.5544 22.1164C41.4465 24.3788 40.7019 26.1672 39.3208 27.4816C37.9396 28.7744 35.9865 29.4208 33.4616 29.4208ZM33.4616 26.2211C34.6054 26.2211 35.4902 25.8655 36.116 25.1545C36.7419 24.4219 37.0872 23.3553 37.1519 21.9548C37.1735 21.7393 37.1843 21.3191 37.1843 20.6943C37.1843 20.0694 37.1735 19.6492 37.1519 19.4338C37.0872 18.0332 36.7419 16.9774 36.116 16.2663C35.4902 15.5337 34.6054 15.1674 33.4616 15.1674C32.3178 15.1674 31.433 15.5337 30.8071 16.2663C30.1813 16.9774 29.836 18.0332 29.7713 19.4338L29.7389 20.6943L29.7713 21.9548C29.836 23.3553 30.1813 24.4219 30.8071 25.1545C31.433 25.8655 32.3178 26.2211 33.4616 26.2211Z" fill="white"/>
<path d="M51.421 29.4208C49.2414 29.4208 47.5689 28.7205 46.4035 27.32C45.2381 25.9194 44.6123 24.0556 44.526 21.7285L44.4936 20.6619L44.526 19.6277C44.5907 17.3652 45.2058 15.523 46.3711 14.1009C47.5581 12.6788 49.2414 11.9677 51.421 11.9677C53.5144 11.9677 55.1761 12.6788 56.4062 14.1009V6.92572C56.4062 6.6887 56.4817 6.50555 56.6328 6.37627C56.7839 6.22544 56.9673 6.15002 57.1831 6.15002H59.9347C60.1721 6.15002 60.3555 6.22544 60.485 6.37627C60.636 6.50555 60.7116 6.6887 60.7116 6.92572V28.3219C60.7116 28.5374 60.636 28.7205 60.485 28.8714C60.3555 29.0222 60.1721 29.0976 59.9347 29.0976H57.3773C57.1615 29.0976 56.9781 29.0222 56.827 28.8714C56.676 28.7205 56.6004 28.5374 56.6004 28.3219V27.126C55.3703 28.6559 53.6439 29.4208 51.421 29.4208ZM52.6188 25.9625C53.8705 25.9625 54.7984 25.5639 55.4027 24.7666C56.007 23.9694 56.3415 22.989 56.4062 21.8255C56.4278 21.5669 56.4386 21.1467 56.4386 20.565C56.4386 20.0048 56.4278 19.5954 56.4062 19.3368C56.363 18.2594 56.0177 17.3437 55.3703 16.5896C54.7445 15.8139 53.8273 15.426 52.6188 15.426C50.288 15.426 49.0471 16.8589 48.8961 19.7246L48.8637 20.6943L48.8961 21.6639C49.0471 24.5296 50.288 25.9625 52.6188 25.9625Z" fill="white"/>
<path d="M71.2737 29.4208C69.2883 29.4208 67.7237 28.7744 66.5799 27.4816C65.4361 26.1672 64.8642 24.3896 64.8642 22.1487V13.0666C64.8642 12.8511 64.9397 12.668 65.0908 12.5172C65.2419 12.3663 65.4253 12.2909 65.6411 12.2909H68.4898C68.7272 12.2909 68.9106 12.3663 69.0401 12.5172C69.1912 12.6464 69.2667 12.8296 69.2667 13.0666V21.9548C69.2667 24.6266 70.4428 25.9625 72.7951 25.9625C73.9174 25.9625 74.8022 25.607 75.4496 24.8959C76.1186 24.1849 76.4531 23.2045 76.4531 21.9548V13.0666C76.4531 12.8511 76.5286 12.668 76.6797 12.5172C76.8308 12.3663 77.0142 12.2909 77.23 12.2909H80.0787C80.3161 12.2909 80.4995 12.3663 80.629 12.5172C80.7801 12.6464 80.8556 12.8296 80.8556 13.0666V28.3219C80.8556 28.5374 80.7801 28.7205 80.629 28.8714C80.4995 29.0222 80.3161 29.0976 80.0787 29.0976H77.4566C77.2408 29.0976 77.0574 29.0222 76.9063 28.8714C76.7552 28.7205 76.6797 28.5374 76.6797 28.3219V26.9968C75.4712 28.6128 73.6692 29.4208 71.2737 29.4208Z" fill="white"/>
<path d="M85.9409 29.0976C85.7251 29.0976 85.5416 29.0222 85.3906 28.8714C85.2395 28.7205 85.164 28.5374 85.164 28.3219V6.92572C85.164 6.6887 85.2395 6.50555 85.3906 6.37627C85.5416 6.22544 85.7251 6.15002 85.9409 6.15002H88.6277C88.8651 6.15002 89.0485 6.22544 89.178 6.37627C89.3291 6.50555 89.4046 6.6887 89.4046 6.92572V28.3219C89.4046 28.5374 89.3291 28.7205 89.178 28.8714C89.0485 29.0222 88.8651 29.0976 88.6277 29.0976H85.9409Z" fill="white"/>
<path d="M100.95 29.4208C98.5543 29.4208 96.6444 28.7313 95.2201 27.3523C93.8173 25.9517 93.0728 23.991 92.9864 21.47L92.9541 20.6619L92.9864 19.8539C93.0943 17.3976 93.8497 15.4691 95.2524 14.0686C96.6768 12.668 98.5759 11.9677 100.95 11.9677C103.496 11.9677 105.46 12.7434 106.841 14.2948C108.244 15.8462 108.945 17.9147 108.945 20.5003V21.1791C108.945 21.3945 108.87 21.5777 108.719 21.7285C108.568 21.8793 108.374 21.9548 108.136 21.9548H97.3889V22.2133C97.4321 23.3984 97.7558 24.4003 98.3601 25.2191C98.9859 26.0164 99.8384 26.415 100.917 26.415C102.191 26.415 103.216 25.9194 103.993 24.9282C104.187 24.6912 104.338 24.5404 104.446 24.4758C104.575 24.4111 104.759 24.3788 104.996 24.3788H107.78C107.974 24.3788 108.136 24.4434 108.266 24.5727C108.417 24.6805 108.492 24.8205 108.492 24.9929C108.492 25.51 108.179 26.1241 107.553 26.8352C106.949 27.5247 106.075 28.128 104.931 28.6451C103.788 29.1622 102.46 29.4208 100.95 29.4208ZM104.543 19.2398V19.1429C104.543 17.8716 104.219 16.8481 103.572 16.0724C102.946 15.2967 102.072 14.9089 100.95 14.9089C99.8276 14.9089 98.9535 15.2967 98.3277 16.0724C97.7019 16.8481 97.3889 17.8716 97.3889 19.1429V19.2398H104.543Z" fill="white"/>
<path d="M113.579 29.0976C113.342 29.0976 113.148 29.033 112.997 28.9037C112.846 28.7528 112.77 28.5589 112.77 28.3219V7.28124C112.77 7.04423 112.846 6.8503 112.997 6.69947C113.148 6.54864 113.342 6.47323 113.579 6.47323H116.137C116.59 6.47323 116.914 6.67793 117.108 7.08732L123.355 18.7227L129.668 7.08732C129.884 6.67793 130.207 6.47323 130.639 6.47323H133.164C133.401 6.47323 133.596 6.54864 133.747 6.69947C133.898 6.8503 133.973 7.04423 133.973 7.28124V28.3219C133.973 28.5589 133.898 28.7528 133.747 28.9037C133.596 29.033 133.401 29.0976 133.164 29.0976H130.445C130.229 29.0976 130.046 29.0222 129.894 28.8714C129.743 28.7205 129.668 28.5374 129.668 28.3219V14.3271L125.136 22.9567C124.855 23.4307 124.488 23.6677 124.035 23.6677H122.708C122.255 23.6677 121.888 23.4307 121.607 22.9567L117.075 14.3271V28.3219C117.075 28.5374 117 28.7205 116.849 28.8714C116.719 29.0222 116.536 29.0976 116.299 29.0976H113.579Z" fill="white"/>
</svg>
