<svg width="318" height="345" viewBox="0 0 318 345" fill="none" xmlns="http://www.w3.org/2000/svg">
<circle opacity="0.2" cx="181.5" cy="212.5" r="132.5" fill="#F28F00"/>
<mask id="mask0" mask-type="alpha" maskUnits="userSpaceOnUse" x="0" y="0" width="318" height="345">
<path d="M318 212C318 285.178 258.678 344.5 185.5 344.5C112.322 344.5 0 280.678 0 207.5C0 134.322 112.322 0 185.5 0C258.678 0 318 138.822 318 212Z" fill="#C4C4C4"/>
</mask>
<g mask="url(#mask0)">
<path fill-rule="evenodd" clip-rule="evenodd" d="M150.45 204.375L122.647 240.311C113.835 245.622 106.776 251.112 101.467 256.782C100.349 258.595 99.3193 261.911 105.457 259.631C111.596 257.351 118.155 255.229 119.634 257.122C121.113 259.014 118.048 262.662 120.625 265.049C122.344 266.641 126.475 260.233 133.018 245.827L163.743 221.385L150.45 204.375Z" fill="#FFD5AE"/>
<path fill-rule="evenodd" clip-rule="evenodd" d="M202.244 97.9567L166.166 78.8486C167.029 124.833 154.539 177.054 128.877 225.769L145.648 238.412C171.554 203.538 181.944 177.651 197.908 137.901C198.034 125.794 207.771 110.036 202.244 97.9567Z" fill="#C7C7C7"/>
<path fill-rule="evenodd" clip-rule="evenodd" d="M180.859 67.473C172.63 70.2403 165.029 70.7741 161.872 69.1692C153.956 65.1451 159.99 34.2632 169.168 23.5953C178.346 12.9274 212.908 15.0495 209.276 39.4107C208.015 47.865 202.874 54.5201 196.366 59.4382L196.062 104.658L169.16 98.6973L180.859 67.473Z" fill="#FFD5AE"/>
<path fill-rule="evenodd" clip-rule="evenodd" d="M201.623 31.8047C186.075 28.4761 175.418 25.4285 169.613 22.3599C171.061 17.161 177.848 12.4251 192.274 15.6215C208.323 19.1778 214.861 30.4405 212.463 41.2624C210.272 51.1495 201.239 61.7804 196.286 61.197C195.092 60.6442 194.355 58.8945 193.751 56.5746C195.962 56.0462 197.866 54.0678 198.522 51.1086C199.152 48.2642 197.255 44.948 194.159 44.2621C193.03 44.0119 191.898 44.1463 190.884 44.556C189.576 40.83 187.569 37.8188 183.943 37.2948L187.675 31.066L201.375 32.9256L201.623 31.8047Z" fill="#B7410E"/>
<path fill-rule="evenodd" clip-rule="evenodd" d="M217.16 280.011C217.165 278.84 218.127 277.878 219.295 277.964C221.733 278.144 225.592 278.55 227.445 279.39C230.273 280.673 235.272 284.077 235.272 284.077C233.784 287.358 208.521 343.049 208.521 343.049C208.521 343.049 199.879 341.9 201.52 336.673C203.16 331.445 204.158 327.948 204.158 327.948L204.373 294.843C204.377 294.28 204.845 293.831 205.408 293.85L210.633 294.032C210.633 294.032 214.852 290.418 216.152 287.551C216.983 285.721 217.148 282.268 217.16 280.011Z" fill="#E4E4E4"/>
<path fill-rule="evenodd" clip-rule="evenodd" d="M216.646 195.549L204.186 346.922L195.307 458.432L173.578 462.735L155.951 207.567L216.646 195.549Z" fill="#191847"/>
<path fill-rule="evenodd" clip-rule="evenodd" d="M217.977 221.502C199.43 294.474 191.978 334.989 191.184 341.857C190.391 348.726 193.898 394.713 201.706 479.818L179.541 473.882C163.092 389.839 154.059 342.372 152.439 331.48C150.819 320.589 148.379 277.425 147.337 202.583L217.977 221.502Z" fill="#0F1340"/>
<path fill-rule="evenodd" clip-rule="evenodd" d="M124.815 230.094C121.962 230.116 121.882 219.784 124.736 219.761C132.815 219.699 140.502 223.513 147.7 230.854C149.697 232.891 149.665 236.163 147.627 238.16C145.59 240.158 142.319 240.125 140.321 238.088C134.945 232.604 129.808 230.056 124.815 230.094Z" fill="#C7C7C7"/>
<path fill-rule="evenodd" clip-rule="evenodd" d="M229.163 213.115C229.163 213.115 175.208 220.572 143.965 215.495C141.384 215.075 141.188 204.007 142.294 200.952C159.516 153.374 170.748 118.583 169.835 85.8959C175.012 88.4184 187.715 86.1959 187.715 86.1959C211.511 119.242 223.095 157.599 229.163 213.115Z" fill="#A46D46"/>
<path fill-rule="evenodd" clip-rule="evenodd" d="M208.181 338.278C233.686 334.241 261.998 329.761 290.274 340.15C288.544 316.825 274.186 291.353 259.892 265.997C250.882 250.011 241.897 234.071 236.118 218.744C237.304 217.713 237.915 216.089 237.577 214.439L236.616 209.76C236.173 207.6 234.25 206.121 232.122 206.164C231.703 204.501 231.335 202.847 231.022 201.203C229.379 192.567 230.034 183.969 230.682 175.468C231.517 164.507 232.34 153.707 228.207 143.193C222.976 129.883 214.784 116.691 207.547 105.035C202.462 96.8466 197.849 89.4162 195.063 83.2357L183.796 83.5504C185.821 103.06 179.669 131.705 172.532 164.935C161.119 218.079 147.187 282.95 160.156 340.934C174.186 343.658 190.509 341.075 208.181 338.278Z" fill="#DDDDDD"/>
<path fill-rule="evenodd" clip-rule="evenodd" d="M192.14 84.4659L198.57 102.509L187.027 116.492L198.103 126.917L173.28 172.283L203.916 126.844L193.03 116.324L203.277 103.966L192.14 84.4659Z" fill="black" fill-opacity="0.1"/>
<path fill-rule="evenodd" clip-rule="evenodd" d="M181.406 189.284C178.871 189.355 176.758 187.357 176.688 184.822C176.617 182.286 178.615 180.173 181.15 180.103C183.685 180.032 185.798 182.03 185.869 184.565C185.94 187.1 183.942 189.213 181.406 189.284ZM176.405 215.841C173.87 215.912 171.757 213.914 171.686 211.378C171.616 208.843 173.613 206.73 176.149 206.659C178.684 206.589 180.797 208.587 180.868 211.122C180.938 213.657 178.941 215.77 176.405 215.841ZM171.277 237.806C171.348 240.342 173.46 242.34 175.996 242.269C178.531 242.198 180.529 240.085 180.458 237.55C180.387 235.015 178.275 233.017 175.739 233.087C173.204 233.158 171.206 235.271 171.277 237.806Z" fill="black" fill-opacity="0.4"/>
<path fill-rule="evenodd" clip-rule="evenodd" d="M121.229 200.306C121.229 200.306 53.6455 223.14 46.0618 223.77C42.3543 224.078 27.3963 218.861 18.0816 214.6C14.3428 212.89 12.5146 215.625 12.4965 217.13C12.3489 229.369 22.3952 231.336 30.6325 236.906C39.6572 243.008 28.1035 248.973 35.1383 253.882C38.5202 249.047 44.2223 239.065 51.2343 237.953C55.909 237.212 131.726 217.971 131.726 217.971L121.229 200.306Z" fill="#FFD5AE"/>
<path fill-rule="evenodd" clip-rule="evenodd" d="M222.649 171.059C222.649 171.059 172.573 229.78 63.2285 235.664L61.4897 213.128C155.156 198.642 178.541 154.215 178.541 154.215L222.616 158.119L222.649 171.059Z" fill="#DDDDDD"/>
<path fill-rule="evenodd" clip-rule="evenodd" d="M94.9249 241.468C93.7172 244.054 103.079 248.427 104.287 245.842C107.707 238.521 107.438 229.944 103.759 220.344C102.738 217.68 99.7501 216.348 97.0857 217.369C94.4213 218.39 93.0892 221.378 94.1104 224.042C96.8589 231.213 97.0381 236.945 94.9249 241.468Z" fill="#DDDDDD"/>
</g>
</svg>
