<svg width="377" height="343" viewBox="0 0 377 343" fill="none" xmlns="http://www.w3.org/2000/svg">
<circle opacity="0.2" cx="132.5" cy="210.5" r="132.5" fill="#02C3CF"/>
<mask id="mask0" mask-type="alpha" maskUnits="userSpaceOnUse" x="1" y="0" width="376" height="343">
<path d="M1 210.5C1 283.678 60.3223 343 133.5 343C206.678 343 266 283.678 266 210.5C300.5 160 566 205 125.5 0C52.3223 0 1 137.322 1 210.5Z" fill="#C4C4C4"/>
</mask>
<g mask="url(#mask0)">
<path fill-rule="evenodd" clip-rule="evenodd" d="M198.671 169.889C198.671 169.889 259.93 164.805 266.403 165.851C269.568 166.363 280.996 173.828 287.903 179.322C290.675 181.527 292.771 179.619 293.099 178.365C295.76 168.159 287.765 164.431 282.031 158.065C275.748 151.09 286.648 148.497 281.783 142.932C277.952 146.275 271.113 153.441 265.018 152.917C260.954 152.567 193.554 152.939 193.554 152.939L198.671 169.889Z" fill="#FFCA99"/>
<path fill-rule="evenodd" clip-rule="evenodd" d="M228.517 101.495L266.723 92.9454C274.09 88.0134 280.956 84.5133 287.321 82.4451C289.144 82.2353 292.108 82.6452 288.084 86.6004C284.06 90.5555 280.005 94.8967 280.941 96.743C281.877 98.5892 285.844 97.532 286.764 100.416C287.377 102.339 280.867 103.219 267.234 103.055L236.927 118.087L228.517 101.495Z" fill="#FFCA99"/>
<path fill-rule="evenodd" clip-rule="evenodd" d="M125.39 115.066L127.872 103.903C167.013 110.114 208.838 109.499 253.467 93.3982L262.259 109.216C229.414 127.173 201.091 145.824 170.261 141.85C159.914 140.516 135.04 121.221 125.39 115.066Z" fill="#C5CFD6"/>
<path fill-rule="evenodd" clip-rule="evenodd" d="M141.711 78.9225C147.943 83.059 154.149 85.1969 157.134 84.5647C164.62 82.9796 166.481 55.9303 161.22 45.0051C155.958 34.08 126.717 28.1428 124.311 49.2294C123.476 56.5484 126.273 63.2345 130.594 68.7792L120.768 106.484L144.489 107.519L141.711 78.9225Z" fill="#FFCA99"/>
<path fill-rule="evenodd" clip-rule="evenodd" d="M152.355 32.9685C149.157 31.8388 144.466 31.2984 142.477 31.4388C143.72 28.7903 144.298 25.8042 144.062 22.862C143.832 20.003 142.667 17.5264 141.602 14.9381C141.112 13.745 140.548 12.5552 139.672 11.6208C138.78 10.6688 137.626 10.0158 136.401 9.67484C135.147 9.32585 133.822 9.29256 132.542 9.50382C131.975 9.59727 131.461 9.83186 130.904 9.95047C130.334 10.072 130.076 9.70738 129.683 9.33507C128.734 8.43799 127.308 7.95333 126.067 7.74804C124.675 7.5178 123.214 7.66553 121.86 8.06728C120.542 8.4584 119.262 9.13107 118.277 10.1494C117.838 10.6026 117.435 11.1228 117.163 11.7045C117.051 11.9433 117.028 12.0866 116.782 12.1651C116.554 12.2378 116.291 12.2287 116.056 12.2971C113.783 12.9579 111.793 14.6047 110.654 16.7809C109.989 18.0505 109.601 20.32 109.569 22.8812C109.536 25.4424 111.555 32.217 113.608 34.7455C115.442 37.0025 118.213 38.5599 120.921 39.3069C119.015 41.3028 117.694 43.8431 116.685 46.4413C115.589 49.2636 114.859 52.2139 114.505 55.237C114.168 58.1092 114.016 61.1556 114.568 64.005C115.085 66.6696 116.342 68.8919 118.538 70.3628C119.544 71.0365 120.636 71.5573 121.735 72.0378C122.819 72.5112 123.906 72.973 125.05 73.262C127.215 73.8089 129.736 73.8412 131.495 72.1755C132.129 71.575 132.83 70.8163 133.306 70.0697C133.478 69.8012 133.581 69.6253 133.4 69.3476C133.182 69.0151 132.818 68.7517 132.532 68.4865C130.898 66.9743 129.932 65.0085 129.766 62.7153C129.599 60.3885 130.351 57.4275 132.646 56.5154C135.479 55.3893 138.476 56.9544 140.887 58.3965C142.098 54.7381 144.399 51.4969 147.851 49.9452C151.671 48.2285 155.97 48.1956 159.881 46.7503C160.901 46.3736 161.941 45.941 162.715 45.1168C163.039 44.7724 163.42 44.3239 163.564 43.8559C163.752 43.2412 163.374 42.7024 163.086 42.2042C161.555 39.5624 155.553 34.0982 152.355 32.9685Z" fill="#191847"/>
<path fill-rule="evenodd" clip-rule="evenodd" d="M106.507 181.128L142.374 306.993L168.543 399.762H187.629L159.821 181.128H106.507Z" fill="#00B3BE"/>
<path fill-rule="evenodd" clip-rule="evenodd" d="M96.9175 181.128C96.0879 246 93.259 281.383 92.3879 287.277C91.5169 293.171 78.3462 330.666 52.876 399.762H72.6484C105.074 333.476 123.175 295.981 126.951 287.277C130.727 278.573 142.38 243.19 159.931 181.128H96.9175Z" fill="#00C4D0"/>
<path fill-rule="evenodd" clip-rule="evenodd" d="M96.8624 197.47C96.8624 197.47 143.515 202.416 170.304 197.47C172.517 197.061 172.866 193.357 171.84 190.843C155.861 151.69 144.903 117.526 144.903 90.3317C140.505 92.5489 129.509 90.9962 129.509 90.9962C109.809 119.021 100.753 151.177 96.8624 197.47Z" fill="#323337"/>
<path fill-rule="evenodd" clip-rule="evenodd" d="M58.6625 301.946H159.378C140.764 252.141 134.735 99.8906 132.823 88.6473H123.111C102.972 135.169 62.1066 229.98 58.6625 301.946Z" fill="#DDE3E9"/>
<path fill-rule="evenodd" clip-rule="evenodd" d="M104.382 138.989C104.382 138.989 160.047 184.901 253.076 169.131L250.268 149.857C168.788 155.427 130.541 109.765 130.541 109.765L104.382 138.989Z" fill="#DDE3E9"/>
</g>
</svg>
